<?xml version="1.0" encoding="UTF-8" standalone="no"?>
<!DOCTYPE svg PUBLIC "-//W3C//DTD SVG 1.1//EN" "http://www.w3.org/Graphics/SVG/1.1/DTD/svg11.dtd">
<svg width="100%" height="100%" viewBox="0 0 5321 819" version="1.1" xmlns="http://www.w3.org/2000/svg" xmlns:xlink="http://www.w3.org/1999/xlink" xml:space="preserve" xmlns:serif="http://www.serif.com/" style="fill-rule:evenodd;clip-rule:evenodd;stroke-linejoin:round;stroke-miterlimit:2;">
    <g transform="matrix(1.994168,0,0,1.994168,-3241.373096,-1388.014836)">
        <path d="M2630.295,1043.479L2686.792,969.565L2466.75,969.565L2466.75,759.293L2378.817,759.293L2378.817,1043.479L2630.295,1043.479Z" style="fill:white;fill-rule:nonzero;"/>
        <path d="M2983.722,919.439C2983.722,959.795 2958.66,974.238 2886.02,974.238C2812.531,974.238 2786.618,959.795 2786.618,919.439L2786.618,759.293L2698.686,759.293L2698.686,919.439C2698.686,1008.646 2756.883,1048.152 2886.02,1048.152C3013.883,1048.152 3071.23,1008.221 3071.23,919.439L3071.23,759.293L2983.722,759.293L2983.722,919.439Z" style="fill:white;fill-rule:nonzero;"/>
        <path d="M3426.356,1043.479L3482.429,969.565L3283.626,969.565C3230.952,969.565 3199.942,943.228 3199.942,898.625C3199.942,855.721 3228.828,833.207 3283.626,833.207L3426.356,833.207L3482.429,759.293L3283.626,759.293C3183.375,759.293 3112.435,817.064 3112.435,898.625C3112.435,981.459 3185.499,1043.479 3283.626,1043.479L3426.356,1043.479Z" style="fill:white;fill-rule:nonzero;"/>
        <path d="M3751.323,1043.479L3751.323,949.175L3919.966,759.293L3812.493,759.293L3708.844,876.111L3602.645,759.293L3490.075,759.293L3663.391,949.175L3663.391,1043.479L3751.323,1043.479Z" style="fill:white;fill-rule:nonzero;"/>
        <path d="M4287.411,1043.479L4109.423,786.479C4097.104,768.638 4079.688,754.62 4053.351,754.62C4026.164,754.62 4009.172,769.488 3996.853,786.479L3814.617,1043.479L3917.417,1043.479L4052.076,853.597L4132.362,969.565L4010.022,969.565L3957.347,1043.479L4287.411,1043.479Z" style="fill:white;fill-rule:nonzero;"/>
    </g>
    <g transform="matrix(4.637988,1.92625,-3.42987,8.258377,-1380.365483,-2404.521271)">
        <path d="M568.113,179.949C563.902,180.919 555.23,182.915 555.23,182.915L551.826,178.599L582.04,166.062L590.133,168.64L604.765,184.318L589.166,196.837L571.821,197.022L568.113,179.949Z" style="fill:white;"/>
    </g>
    <g transform="matrix(-1,0,0,1,1377.347799,-143.329331)">
        <path d="M446.926,615.967L270.482,618.173L558.78,745.586L446.926,615.967Z" style="fill:white;"/>
    </g>
    <g transform="matrix(0.927257,0,0,0.964471,300.799812,-16.362716)">
        <path d="M315.864,646.734L415.125,437.49L514.387,646.734L415.125,855.979L315.864,646.734Z" style="fill:white;"/>
    </g>
    <g transform="matrix(1,0,0,1,-1.416804,-157.904613)">
        <path d="M813.693,410.352L1351.9,167.7L1071.253,436.997L1320,335.3L1132.355,506.971L1235.8,497.9L1111,610.7L919.704,605.288L798.279,753.052L695.013,528.639L817.958,449.744L813.693,410.352Z" style="fill:white;"/>
    </g>
    <g transform="matrix(1,0,0,1,-5.892426,-143.329331)">
        <path d="M446.926,615.967L270.482,618.173L558.78,745.586L446.926,615.967Z" style="fill:white;"/>
    </g>
    <g transform="matrix(-1,0,0,1,1372.872177,-157.904613)">
        <path d="M779.185,419.829L1351.9,167.7L1071.253,436.997L1320,335.3L1132.355,506.971L1235.8,497.9L1111,610.7L919.704,605.288L798.418,753.052L695.56,535.253L800.103,494.549L779.185,419.829Z" style="fill:white;"/>
    </g>
</svg>
