<?xml version="1.0" encoding="UTF-8" standalone="no"?>
<!DOCTYPE svg PUBLIC "-//W3C//DTD SVG 1.1//EN" "http://www.w3.org/Graphics/SVG/1.1/DTD/svg11.dtd">
<svg width="100%" height="100%" viewBox="0 0 1920 472" version="1.1" xmlns="http://www.w3.org/2000/svg" xmlns:xlink="http://www.w3.org/1999/xlink" xml:space="preserve" xmlns:serif="http://www.serif.com/" style="fill-rule:evenodd;clip-rule:evenodd;stroke-linejoin:round;stroke-miterlimit:2;">
    <g id="Layer-1" serif:id="Layer 1" transform="matrix(1,0,0,1,26.622642,-1.566038)">
        <g id="g6" transform="matrix(1,0,0,1,-13.196071,-19.965003)">
            <path id="path1" d="M462.072,290.386C459.072,290.386 457.072,289.886 456.072,288.886C455.072,287.886 454.572,285.886 454.572,282.886L454.572,128.386C454.572,121.986 456.072,116.886 459.072,113.086C462.072,109.086 465.722,105.136 470.022,101.236C474.322,97.336 478.972,93.836 483.972,90.736C488.972,87.636 494.322,85.136 500.022,83.236C505.722,81.336 511.572,80.386 517.572,80.386L678.071,80.386C681.071,80.386 683.071,80.886 684.071,81.886C685.071,82.886 685.571,84.886 685.571,87.886L685.571,282.886C685.571,285.886 685.071,287.886 684.071,288.886C683.071,289.886 681.071,290.386 678.071,290.386L636.071,290.386C633.071,290.386 631.071,289.886 630.071,288.886C629.071,287.886 628.571,285.886 628.571,282.886L628.571,236.986C628.571,234.186 627.671,232.786 625.871,232.786C624.471,232.786 622.671,233.486 620.471,234.886L544.872,285.886C540.472,288.886 535.272,290.386 529.272,290.386L462.072,290.386ZM511.572,237.286C511.572,240.286 512.472,241.786 514.272,241.786C515.272,241.786 517.072,240.986 519.672,239.386L621.971,170.386C625.171,168.186 627.071,165.586 627.671,162.586C628.271,159.586 628.571,156.586 628.571,153.586L628.571,140.386C628.571,137.386 628.071,135.386 627.071,134.386C626.071,133.386 624.071,132.886 621.071,132.886L543.072,132.886C538.272,132.886 534.172,133.886 530.772,135.886L520.572,142.186C514.572,145.986 511.572,151.386 511.572,158.386L511.572,237.286Z" style="fill:white;"/>
            <path id="path2" d="M741.071,290.386C738.071,290.386 736.071,289.886 735.071,288.886C734.071,287.886 733.571,285.886 733.571,282.886L733.571,87.886C733.571,84.886 734.071,82.886 735.071,81.886C736.071,80.886 738.071,80.386 741.071,80.386L783.071,80.386C786.071,80.386 788.071,80.886 789.071,81.886C790.071,82.886 790.571,84.886 790.571,87.886L790.571,282.886C790.571,285.886 790.071,287.886 789.071,288.886C788.071,289.886 786.071,290.386 783.071,290.386L741.071,290.386Z" style="fill:white;"/>
            <path id="path3" d="M846.071,290.386C843.071,290.386 841.071,289.886 840.071,288.886C839.071,287.886 838.571,285.886 838.571,282.886L838.571,237.886C838.571,234.086 839.321,231.086 840.821,228.886C842.321,226.686 844.571,224.486 847.571,222.286L968.17,140.986C971.57,138.786 972.87,136.886 972.07,135.286C971.27,133.686 969.37,132.886 966.37,132.886L934.57,132.886C930.77,132.886 927.97,133.236 926.17,133.936C924.37,134.636 922.17,135.786 919.571,137.386L850.271,184.186C848.471,185.386 846.771,185.986 845.171,185.986C843.371,185.986 841.821,185.436 840.521,184.336C839.221,183.236 838.571,181.586 838.571,179.386L838.571,136.486C838.571,132.686 839.221,129.686 840.521,127.486C841.821,125.286 844.171,123.086 847.571,120.886L900.671,84.886C903.471,83.086 906.021,81.886 908.321,81.286C910.621,80.686 913.271,80.386 916.271,80.386L1062.07,80.386C1065.07,80.386 1067.07,80.886 1068.07,81.886C1069.07,82.886 1069.57,84.886 1069.57,87.886L1069.57,128.086C1069.57,131.886 1068.77,134.936 1067.17,137.236C1065.57,139.536 1063.37,141.686 1060.57,143.686L933.07,229.786C930.27,231.786 929.12,233.636 929.62,235.336C930.12,237.036 931.87,237.886 934.87,237.886L1062.07,237.886C1065.07,237.886 1067.07,238.386 1068.07,239.386C1069.07,240.386 1069.57,242.386 1069.57,245.386L1069.57,282.886C1069.57,285.886 1069.07,287.886 1068.07,288.886C1067.07,289.886 1065.07,290.386 1062.07,290.386L846.071,290.386Z" style="fill:white;"/>
            <path id="path4" d="M1125.07,290.386C1122.07,290.386 1120.07,289.886 1119.07,288.886C1118.07,287.886 1117.57,285.886 1117.57,282.886L1117.57,128.386C1117.57,121.986 1119.07,116.886 1122.07,113.086C1125.07,109.086 1128.72,105.136 1133.02,101.236C1137.32,97.336 1141.97,93.836 1146.97,90.736C1151.97,87.636 1157.32,85.136 1163.02,83.236C1168.72,81.336 1174.57,80.386 1180.57,80.386L1341.069,80.386C1344.069,80.386 1346.069,80.886 1347.069,81.886C1348.069,82.886 1348.569,84.886 1348.569,87.886L1348.569,282.886C1348.569,285.886 1348.069,287.886 1347.069,288.886C1346.069,289.886 1344.069,290.386 1341.069,290.386L1299.069,290.386C1296.069,290.386 1294.069,289.886 1293.069,288.886C1292.069,287.886 1291.569,285.886 1291.569,282.886L1291.569,236.986C1291.569,234.186 1290.669,232.786 1288.869,232.786C1287.469,232.786 1285.669,233.486 1283.469,234.886L1207.87,285.886C1203.47,288.886 1198.27,290.386 1192.27,290.386L1125.07,290.386ZM1174.57,237.286C1174.57,240.286 1175.47,241.786 1177.27,241.786C1178.27,241.786 1180.07,240.986 1182.67,239.386L1284.969,170.386C1288.169,168.186 1290.069,165.586 1290.669,162.586C1291.269,159.586 1291.569,156.586 1291.569,153.586L1291.569,140.386C1291.569,137.386 1291.069,135.386 1290.069,134.386C1289.069,133.386 1287.069,132.886 1284.069,132.886L1206.07,132.886C1201.27,132.886 1197.17,133.886 1193.77,135.886L1183.57,142.186C1177.57,145.986 1174.57,151.386 1174.57,158.386L1174.57,237.286Z" style="fill:white;"/>
            <path id="path5" d="M1404.07,290.386C1401.07,290.386 1399.07,289.886 1398.07,288.886C1397.07,287.886 1396.57,285.886 1396.57,282.886L1396.57,87.886C1396.57,84.886 1397.07,82.886 1398.07,81.886C1399.07,80.886 1401.07,80.386 1404.07,80.386L1446.07,80.386C1449.07,80.386 1451.07,80.886 1452.07,81.886C1453.07,82.886 1453.57,84.886 1453.57,87.886L1453.57,104.386C1453.57,107.386 1453.87,110.386 1454.47,113.386C1455.07,116.386 1456.97,118.986 1460.17,121.186L1499.77,147.886C1504.17,150.886 1507.37,152.386 1509.37,152.386C1511.37,152.386 1514.57,150.886 1518.97,147.886L1616.169,82.186C1617.969,80.986 1619.869,80.386 1621.869,80.386C1623.469,80.386 1624.819,80.886 1625.919,81.886C1627.019,82.886 1627.569,84.586 1627.569,86.986L1627.569,128.386C1627.569,132.186 1626.819,135.186 1625.319,137.386C1623.819,139.586 1621.569,141.786 1618.569,143.986L1563.069,181.486C1558.669,184.486 1558.669,187.486 1563.069,190.486L1618.569,227.986C1621.569,230.186 1623.819,232.386 1625.319,234.586C1626.819,236.786 1627.569,239.786 1627.569,243.586L1627.569,286.786C1627.569,288.986 1626.969,290.636 1625.769,291.735C1624.569,292.835 1623.169,293.385 1621.569,293.385C1619.769,293.385 1617.969,292.785 1616.169,291.585L1461.67,187.186C1459.07,185.586 1457.27,184.786 1456.27,184.786C1454.47,184.786 1453.57,186.286 1453.57,189.286L1453.57,282.886C1453.57,285.886 1453.07,287.886 1452.07,288.886C1451.07,289.886 1449.07,290.386 1446.07,290.386L1404.07,290.386Z" style="fill:white;"/>
            <path id="path6" d="M1708.27,285.886C1704.27,282.886 1700.32,279.086 1696.42,274.486C1692.52,269.886 1689.02,264.886 1685.92,259.486C1682.82,254.086 1680.32,248.386 1678.42,242.386C1676.52,236.386 1675.57,230.386 1675.57,224.386L1675.57,87.886C1675.57,84.886 1676.07,82.886 1677.07,81.886C1678.07,80.886 1680.07,80.386 1683.07,80.386L1725.07,80.386C1728.07,80.386 1730.07,80.886 1731.07,81.886C1732.07,82.886 1732.57,84.886 1732.57,87.886L1732.57,206.386C1732.57,211.186 1733.57,215.286 1735.57,218.686L1741.87,228.886C1745.67,234.886 1751.07,237.886 1758.07,237.886L1761.07,237.886C1764.87,237.886 1768.42,236.886 1771.72,234.886C1775.02,232.886 1778.07,230.886 1780.87,228.886L1842.97,186.886C1846.37,184.686 1848.32,182.086 1848.82,179.086C1849.32,176.086 1849.57,173.086 1849.57,170.086L1849.57,87.886C1849.57,84.886 1850.07,82.886 1851.07,81.886C1852.07,80.886 1854.07,80.386 1857.07,80.386L1899.069,80.386C1902.069,80.386 1904.069,80.886 1905.069,81.886C1906.069,82.886 1906.569,84.886 1906.569,87.886L1906.569,282.886C1906.569,285.886 1906.069,287.886 1905.069,288.886C1904.069,289.886 1902.069,290.386 1899.069,290.386L1857.07,290.386C1854.07,290.386 1852.07,289.886 1851.07,288.886C1850.07,287.886 1849.57,285.886 1849.57,282.886L1849.57,253.486C1849.57,250.486 1848.77,248.986 1847.17,248.986C1845.77,248.986 1843.87,249.786 1841.47,251.386L1790.17,285.886C1785.77,288.886 1780.57,290.386 1774.57,290.386L1723.57,290.386C1717.37,290.386 1712.27,288.886 1708.27,285.886Z" style="fill:white;"/>
        </g>
        <g id="g19">
            <path id="path7" d="M564.974,395.271C565.17,394.782 565.365,394.013 565.56,392.963C565.756,391.914 565.902,390.998 566,390.217L566.146,389.045L566.146,369.489C566.146,368.855 566.415,368.183 566.952,367.475C567.489,366.767 568.246,366.413 569.222,366.413L586.947,366.413C587.924,366.413 588.668,366.767 589.181,367.475C589.694,368.183 589.95,368.855 589.95,369.489L589.95,389.045C589.657,392.072 589.266,394.148 588.778,395.271L572.738,431.745C571.81,433.796 570.59,434.821 569.076,434.821L551.278,434.821C550.301,434.821 549.606,434.443 549.191,433.686C548.776,432.929 548.69,432.282 548.934,431.745L564.974,395.271ZM604.891,359.528L537.215,359.528C536.532,359.528 535.824,359.26 535.091,358.723C534.359,358.186 533.993,357.404 533.993,356.379L533.993,341.291C533.993,340.266 534.359,339.484 535.091,338.947C535.824,338.41 536.532,338.142 537.215,338.142L635.726,338.142C636.654,338.142 637.24,338.532 637.484,339.314C637.728,340.095 637.679,340.73 637.338,341.218L619.1,381.867C618.807,382.502 618.246,383.173 617.416,383.881C616.586,384.589 615.707,384.943 614.779,384.943L596.322,384.943C595.345,384.943 594.747,384.553 594.528,383.772C594.308,382.99 594.369,382.356 594.711,381.867L604.891,359.528Z" style="fill:white;"/>
            <path id="path8" d="M735.043,353.303C735.043,354.231 734.689,355.109 733.981,355.94C733.273,356.77 732.601,357.331 731.967,357.624L704.72,370.661L704.72,431.599C704.72,432.282 704.452,432.99 703.915,433.723C703.378,434.455 702.596,434.821 701.571,434.821L686.483,434.821C685.458,434.821 684.677,434.455 684.139,433.723C683.602,432.99 683.334,432.282 683.334,431.599L683.334,380.915L651.254,396.369C650.765,396.711 650.131,396.76 649.349,396.516C648.568,396.272 648.177,395.686 648.177,394.758L648.177,376.301C648.177,375.324 648.531,374.433 649.239,373.628C649.947,372.822 650.619,372.273 651.254,371.98L731.967,333.234C732.455,332.844 733.09,332.771 733.871,333.015C734.652,333.259 735.043,333.869 735.043,334.846L735.043,353.303Z" style="fill:white;"/>
            <path id="path9" d="M886.654,346.931L875.448,346.931C874.472,346.931 873.58,346.589 872.775,345.905C871.969,345.222 871.42,344.538 871.127,343.855L864.096,327.815C863.754,327.326 863.705,326.691 863.949,325.91C864.193,325.129 864.779,324.738 865.707,324.738L876.913,324.738C877.89,324.738 878.781,325.092 879.586,325.8C880.392,326.508 880.941,327.18 881.234,327.815L888.266,343.855C888.607,344.343 888.656,344.978 888.412,345.759C888.168,346.54 887.582,346.931 886.654,346.931ZM865.121,346.931L853.915,346.931C852.938,346.931 852.047,346.589 851.242,345.905C850.436,345.222 849.887,344.538 849.594,343.855L842.562,327.815C842.221,327.326 842.172,326.691 842.416,325.91C842.66,325.129 843.246,324.738 844.174,324.738L855.38,324.738C856.356,324.738 857.247,325.092 858.053,325.8C858.859,326.508 859.408,327.18 859.701,327.815L866.732,343.855C867.074,344.343 867.123,344.978 866.879,345.759C866.635,346.54 866.049,346.931 865.121,346.931ZM810.848,377.766C811.141,377.082 811.386,376.228 811.581,375.202C811.776,374.177 811.898,373.298 811.947,372.566L812.02,371.54L812.02,363.191L796.273,363.191L796.273,387.434C796.273,388.117 795.992,388.862 795.431,389.668C794.869,390.473 794.1,390.876 793.124,390.876L775.839,390.876C774.862,390.876 774.093,390.473 773.532,389.668C772.97,388.862 772.689,388.117 772.689,387.434L772.689,363.191L756.722,363.191C756.039,363.191 755.331,362.922 754.598,362.385C753.866,361.848 753.5,361.066 753.5,360.041L753.5,344.953C753.5,343.928 753.866,343.147 754.598,342.609C755.331,342.072 756.039,341.804 756.722,341.804L772.689,341.804L772.689,325.471C772.689,324.787 772.97,324.043 773.532,323.237C774.093,322.431 774.862,322.028 775.839,322.028L793.124,322.028C794.1,322.028 794.869,322.431 795.431,323.237C795.992,324.043 796.273,324.787 796.273,325.471L796.273,341.804L812.02,341.804L812.02,325.105C812.02,324.47 812.289,323.798 812.826,323.09C813.363,322.382 814.12,322.028 815.097,322.028L832.821,322.028C833.798,322.028 834.542,322.382 835.055,323.09C835.568,323.798 835.824,324.47 835.824,325.105L835.824,341.804L845.712,341.804L847.616,346.052C847.909,346.735 848.458,347.419 849.264,348.103C850.07,348.786 850.961,349.128 851.937,349.128L858.163,349.128L858.163,360.041C858.163,361.018 857.76,361.787 856.954,362.348C856.149,362.91 855.404,363.191 854.721,363.191L835.824,363.191L835.824,371.54C835.678,374.177 835.287,376.252 834.652,377.766L811.141,431.745C810.214,433.796 808.993,434.821 807.479,434.821L789.681,434.821C788.705,434.821 788.009,434.443 787.594,433.686C787.179,432.929 787.094,432.282 787.338,431.745L810.848,377.766Z" style="fill:white;"/>
            <path id="path10" d="M934.921,363.191L908.92,363.191L904.672,377.253C904.525,377.888 904.013,378.559 903.134,379.267C902.255,379.975 901.327,380.329 900.35,380.329L881.893,380.329C880.331,380.329 879.794,379.304 880.282,377.253L895.956,325.105C896.102,324.519 896.615,323.859 897.494,323.127C898.373,322.395 899.301,322.028 900.277,322.028L918.734,322.028C919.418,322.028 919.906,322.224 920.199,322.614C920.492,323.005 920.614,323.432 920.565,323.896C920.516,324.36 920.443,324.763 920.346,325.105L915.365,341.804L961.581,341.804C962.558,341.804 963.253,342.17 963.668,342.902C964.083,343.635 964.193,344.294 963.998,344.88L939.096,431.745C938.949,432.38 938.534,433.051 937.85,433.759C937.167,434.467 936.361,434.821 935.433,434.821L917.636,434.821C916.659,434.821 915.988,434.467 915.621,433.759C915.255,433.051 915.145,432.38 915.292,431.745L934.921,363.191Z" style="fill:white;"/>
            <path id="path11" d="M979.306,373.371L996.444,373.371C997.128,373.371 997.873,373.652 998.678,374.213C999.484,374.775 999.887,375.544 999.887,376.521L999.887,391.609C999.887,392.585 999.484,393.354 998.678,393.916C997.873,394.477 997.128,394.758 996.444,394.758L979.306,394.758C978.622,394.758 977.914,394.477 977.182,393.916C976.449,393.354 976.083,392.585 976.083,391.609L976.083,376.521C976.083,375.495 976.449,374.714 977.182,374.177C977.914,373.64 978.622,373.371 979.306,373.371Z" style="fill:white;"/>
            <path id="path12" d="M1107.7,434.821L1021.567,434.821C1020.884,434.821 1020.176,434.553 1019.443,434.016C1018.711,433.479 1018.345,432.697 1018.345,431.672L1018.345,416.584C1018.345,415.559 1018.711,414.777 1019.443,414.24C1020.176,413.703 1020.884,413.435 1021.567,413.435L1087.339,413.435L1087.339,359.528L1021.567,359.528C1020.884,359.528 1020.176,359.26 1019.443,358.723C1018.711,358.186 1018.345,357.404 1018.345,356.379L1018.345,341.291C1018.345,340.266 1018.711,339.484 1019.443,338.947C1020.176,338.41 1020.884,338.142 1021.567,338.142L1107.7,338.142C1108.384,338.142 1109.128,338.422 1109.934,338.984C1110.74,339.545 1111.143,340.315 1111.143,341.291L1111.143,431.672C1111.143,432.649 1110.74,433.418 1109.934,433.979C1109.128,434.541 1108.384,434.821 1107.7,434.821Z" style="fill:white;"/>
            <path id="path13" d="M1132.82,373.811L1223.494,373.811C1224.178,373.811 1224.922,374.091 1225.728,374.653C1226.534,375.214 1226.937,375.983 1226.937,376.96L1226.937,392.048C1226.937,393.025 1226.534,393.794 1225.728,394.355C1224.922,394.917 1224.178,395.197 1223.494,395.197L1132.82,395.197C1132.137,395.197 1131.429,394.929 1130.696,394.392C1129.964,393.855 1129.598,393.073 1129.598,392.048L1129.598,376.96C1129.598,375.935 1129.964,375.153 1130.696,374.616C1131.429,374.079 1132.137,373.811 1132.82,373.811Z" style="fill:white;"/>
            <path id="path14" d="M1340.39,317.048C1341.757,317.048 1342.831,317.573 1343.612,318.623C1344.394,319.672 1344.784,320.637 1344.784,321.516L1344.784,342.463C1344.784,343.391 1344.394,344.367 1343.612,345.393C1342.831,346.418 1341.757,346.931 1340.39,346.931L1317.978,346.931C1316.61,346.931 1315.536,346.418 1314.755,345.393C1313.974,344.367 1313.583,343.391 1313.583,342.463L1313.583,321.516C1313.583,320.637 1313.974,319.672 1314.755,318.623C1315.536,317.573 1316.61,317.048 1317.978,317.048L1340.39,317.048ZM1331.894,329.133L1326.474,329.133C1325.986,329.133 1325.607,329.316 1325.339,329.682C1325.07,330.048 1324.936,330.402 1324.936,330.744L1324.936,333.308C1324.936,333.601 1325.07,333.93 1325.339,334.296C1325.607,334.663 1325.986,334.846 1326.474,334.846L1331.894,334.846C1332.382,334.846 1332.76,334.663 1333.029,334.296C1333.298,333.93 1333.432,333.601 1333.432,333.308L1333.432,330.744C1333.432,330.402 1333.298,330.048 1333.029,329.682C1332.76,329.316 1332.382,329.133 1331.894,329.133ZM1252.353,371.32L1270.81,371.32C1272.323,371.32 1272.86,372.321 1272.421,374.323L1262.094,426.545C1261.899,427.131 1261.374,427.778 1260.519,428.486C1259.665,429.194 1258.749,429.548 1257.773,429.548L1239.316,429.548C1237.704,429.548 1237.143,428.547 1237.631,426.545L1248.031,374.323C1248.178,373.737 1248.691,373.09 1249.569,372.382C1250.448,371.674 1251.376,371.32 1252.353,371.32ZM1325.082,371.32C1326.059,371.32 1326.986,371.674 1327.865,372.382C1328.744,373.09 1329.257,373.737 1329.403,374.323L1339.731,426.545C1340.268,428.547 1339.731,429.548 1338.119,429.548L1319.662,429.548C1318.686,429.548 1317.758,429.194 1316.879,428.486C1316,427.778 1315.487,427.131 1315.341,426.545L1304.941,374.323C1304.599,372.321 1305.16,371.32 1306.625,371.32L1325.082,371.32ZM1335.19,349.128L1335.19,359.455C1335.19,360.432 1334.787,361.201 1333.981,361.762C1333.175,362.324 1332.431,362.605 1331.747,362.605L1299.447,362.605L1299.447,431.599C1299.447,432.282 1299.179,432.99 1298.642,433.723C1298.105,434.455 1297.323,434.821 1296.298,434.821L1281.21,434.821C1280.185,434.821 1279.403,434.455 1278.866,433.723C1278.329,432.99 1278.061,432.282 1278.061,431.599L1278.061,362.605L1242.538,362.605C1241.855,362.605 1241.147,362.336 1240.414,361.799C1239.682,361.262 1239.316,360.481 1239.316,359.455L1239.316,344.367C1239.316,343.342 1239.682,342.561 1240.414,342.024C1241.147,341.486 1241.855,341.218 1242.538,341.218L1278.061,341.218L1278.061,325.471C1278.061,324.787 1278.341,324.043 1278.903,323.237C1279.464,322.431 1280.234,322.028 1281.21,322.028L1296.298,322.028C1297.275,322.028 1298.044,322.431 1298.605,323.237C1299.167,324.043 1299.447,324.787 1299.447,325.471L1299.447,341.218L1311.679,341.218L1311.679,346.052C1311.972,346.735 1312.521,347.419 1313.327,348.103C1314.132,348.786 1315.024,349.128 1316,349.128L1335.19,349.128Z" style="fill:white;"/>
            <path id="path15" d="M1431.8,408.601C1431.8,409.528 1431.446,410.383 1430.738,411.164C1430.03,411.945 1429.359,412.434 1428.724,412.629L1353.284,437.824C1352.747,438.02 1352.186,437.971 1351.6,437.678C1351.014,437.385 1350.55,436.799 1350.208,435.92L1350.208,340.119C1350.159,339.484 1350.416,338.752 1350.977,337.922C1351.539,337.092 1352.332,336.677 1353.358,336.677L1368.446,336.677C1369.422,336.677 1370.191,337.08 1370.753,337.885C1371.314,338.691 1371.595,339.436 1371.595,340.119L1371.595,407.282L1428.724,388.239C1429.359,387.995 1430.03,388.007 1430.738,388.276C1431.446,388.545 1431.8,389.167 1431.8,390.144L1431.8,408.601Z" style="fill:white;"/>
            <path id="path16" d="M1453.48,373.811L1544.154,373.811C1544.837,373.811 1545.582,374.091 1546.388,374.653C1547.193,375.214 1547.596,375.983 1547.596,376.96L1547.596,392.048C1547.596,393.025 1547.193,393.794 1546.388,394.355C1545.582,394.917 1544.837,395.197 1544.154,395.197L1453.48,395.197C1452.796,395.197 1452.088,394.929 1451.356,394.392C1450.623,393.855 1450.257,393.073 1450.257,392.048L1450.257,376.96C1450.257,375.935 1450.623,375.153 1451.356,374.616C1452.088,374.079 1452.796,373.811 1453.48,373.811Z" style="fill:white;"/>
            <path id="path17" d="M1598.5,368.244C1599.184,368.244 1599.929,368.525 1600.734,369.087C1601.54,369.648 1601.943,370.417 1601.943,371.394L1601.943,386.482C1601.943,387.458 1601.54,388.227 1600.734,388.789C1599.929,389.35 1599.184,389.631 1598.5,389.631L1569.35,389.631C1568.666,389.631 1567.958,389.362 1567.226,388.825C1566.494,388.288 1566.127,387.507 1566.127,386.482L1566.127,371.394C1566.127,370.368 1566.494,369.587 1567.226,369.05C1567.958,368.513 1568.666,368.244 1569.35,368.244L1598.5,368.244ZM1640.175,400.544C1640.175,401.472 1639.821,402.351 1639.113,403.181C1638.405,404.011 1637.734,404.572 1637.099,404.865L1570.668,436.652C1570.18,436.994 1569.545,437.055 1568.764,436.836C1567.983,436.616 1567.592,436.018 1567.592,435.041L1567.592,416.584C1567.592,415.656 1567.934,414.777 1568.618,413.947C1569.301,413.117 1569.985,412.556 1570.668,412.263L1637.099,380.476C1637.587,380.134 1638.222,380.073 1639.003,380.293C1639.785,380.512 1640.175,381.11 1640.175,382.087L1640.175,400.544ZM1598.5,338.142C1599.184,338.142 1599.929,338.422 1600.734,338.984C1601.54,339.545 1601.943,340.315 1601.943,341.291L1601.943,356.379C1601.943,357.356 1601.54,358.125 1600.734,358.686C1599.929,359.248 1599.184,359.528 1598.5,359.528L1569.35,359.528C1568.666,359.528 1567.958,359.26 1567.226,358.723C1566.494,358.186 1566.127,357.404 1566.127,356.379L1566.127,341.291C1566.127,340.266 1566.494,339.484 1567.226,338.947C1567.958,338.41 1568.666,338.142 1569.35,338.142L1598.5,338.142Z" style="fill:white;"/>
            <path id="path18" d="M1728.87,434.821L1661.78,434.821C1661.096,434.821 1660.388,434.553 1659.656,434.016C1658.923,433.479 1658.557,432.697 1658.557,431.672L1658.557,420.246C1658.557,419.221 1658.923,418.44 1659.656,417.902C1660.388,417.365 1661.096,417.097 1661.78,417.097L1708.508,417.097L1708.508,407.575L1661.78,407.575C1661.096,407.575 1660.388,407.307 1659.656,406.77C1658.923,406.233 1658.557,405.451 1658.557,404.426L1658.557,396.662C1658.557,395.637 1658.923,394.856 1659.656,394.318C1660.388,393.781 1661.096,393.513 1661.78,393.513L1708.508,393.513L1708.508,385.163L1661.78,385.163C1661.096,385.163 1660.388,384.895 1659.656,384.358C1658.923,383.82 1658.557,383.039 1658.557,382.014L1658.557,370.588C1658.557,369.563 1658.923,368.781 1659.656,368.244C1660.388,367.707 1661.096,367.439 1661.78,367.439L1728.87,367.439C1729.553,367.439 1730.298,367.719 1731.104,368.281C1731.909,368.842 1732.312,369.611 1732.312,370.588L1732.312,431.672C1732.312,432.697 1731.909,433.479 1731.104,434.016C1730.298,434.553 1729.553,434.821 1728.87,434.821Z" style="fill:white;"/>
            <path id="path19" d="M1824.81,400.544C1824.81,401.472 1824.456,402.351 1823.748,403.181C1823.04,404.011 1822.369,404.572 1821.734,404.865L1755.303,436.652C1754.815,436.994 1754.18,437.055 1753.399,436.836C1752.618,436.616 1752.227,436.018 1752.227,435.041L1752.227,416.584C1752.227,415.656 1752.569,414.777 1753.252,413.947C1753.936,413.117 1754.619,412.556 1755.303,412.263L1821.734,380.476C1822.222,380.134 1822.857,380.073 1823.638,380.293C1824.419,380.512 1824.81,381.11 1824.81,382.087L1824.81,400.544ZM1783.135,338.142C1783.819,338.142 1784.563,338.422 1785.369,338.984C1786.175,339.545 1786.577,340.315 1786.577,341.291L1786.577,356.379C1786.577,357.356 1786.175,358.125 1785.369,358.686C1784.563,359.248 1783.819,359.528 1783.135,359.528L1753.985,359.528C1753.301,359.528 1752.593,359.26 1751.861,358.723C1751.128,358.186 1750.762,357.404 1750.762,356.379L1750.762,341.291C1750.762,340.266 1751.128,339.484 1751.861,338.947C1752.593,338.41 1753.301,338.142 1753.985,338.142L1783.135,338.142Z" style="fill:white;"/>
        </g>
        <path id="path20" d="M243.412,1.566L108.395,235.424L-26.623,469.282L39.323,469.282L71.571,412.589L71.609,412.522L71.632,412.484L145.218,285.029L132.944,263.77L157.492,263.77L243.412,114.951L329.334,263.77L353.882,263.77L341.608,285.029L415.254,412.589L284.327,412.589L286.373,416.133L317.059,469.282L513.449,469.282L378.431,235.424L243.412,1.566ZM91.099,412.589L58.851,469.282L169.767,469.282L200.453,416.133L202.499,412.589L91.099,412.589Z" style="fill:white;fill-rule:nonzero;"/>
        <path id="path21" d="M111.296,388.346L63.107,472.696" style="fill:none;fill-rule:nonzero;"/>
        <path id="path22" d="M147.673,272.275L195.543,355.188L243.412,438.101L291.283,355.188L339.153,272.275L147.673,272.275ZM213.872,310.494L272.954,310.494L258.182,336.078L243.412,361.66L228.642,336.078L213.872,310.494Z" style="fill:white;fill-rule:nonzero;"/>
        <rect id="rect22" x="448.433" y="289.479" width="1435.133" height="17.718" style="fill:white;"/>
    </g>
</svg>
