<?xml version="1.0" encoding="UTF-8" standalone="no"?>
<!DOCTYPE svg PUBLIC "-//W3C//DTD SVG 1.1//EN" "http://www.w3.org/Graphics/SVG/1.1/DTD/svg11.dtd">
<svg width="100%" height="100%" viewBox="0 0 4124 933" version="1.1" xmlns="http://www.w3.org/2000/svg" xmlns:xlink="http://www.w3.org/1999/xlink" xml:space="preserve" xmlns:serif="http://www.serif.com/" style="fill-rule:evenodd;clip-rule:evenodd;stroke-linejoin:round;stroke-miterlimit:2;">
    <g id="text7">
        <g transform="matrix(1,0,0,1,955.85565,678.23212)">
            <g transform="matrix(659.945,0,0,659.945,3205.352865,0)">
            </g>
            <text x="0px" y="0px" style="font-family:'ChakraPetch-Bold', 'Chakra Petch';font-weight:700;font-size:659.945px;fill:white;">astr<tspan x="1259.835px " y="0px ">a</tspan>OS 11</text>
        </g>
        <g transform="matrix(1.008932,0,0,1.008932,-50.123877,-51.066028)">
            <path d="M85.608,690.871C62.47,635.839 49.68,575.401 49.68,512C49.68,256.839 256.839,49.68 512,49.68C575.376,49.68 635.791,62.46 690.806,85.581L635.469,140.927C596.652,128.001 555.137,121 512,121C296.201,121 121,296.201 121,512C121,555.158 128.007,596.692 140.946,635.525L85.608,690.871Z" style="fill:rgb(126,89,212);"/>
        </g>
        <g transform="matrix(1.008932,0,0,1.008932,-50.123877,-51.066028)">
            <path d="M938.392,333.129C961.53,388.161 974.32,448.599 974.32,512C974.32,767.161 767.161,974.32 512,974.32C448.624,974.32 388.209,961.54 333.194,938.419L388.531,883.073C427.348,895.999 468.863,903 512,903C727.799,903 903,727.799 903,512C903,468.842 895.993,427.308 883.054,388.475L938.392,333.129Z" style="fill:rgb(61,84,183);"/>
        </g>
        <g id="path1" transform="matrix(1.008932,0,0,1.008932,-50.123877,-51.066028)">
            <path d="M518.238,159.013C520.957,165.863 526.57,180.052 530.71,190.546C541.393,217.619 549.095,232.307 554.759,236.411C557.266,238.228 568.325,243.616 579.331,248.386C590.338,253.157 601.491,258.042 604.114,259.243C606.737,260.445 615.859,264.368 624.385,267.962C632.911,271.554 639.886,275.17 639.886,275.994C639.886,276.819 628.618,282.483 614.846,288.581C556.393,314.46 553.536,316.054 548.293,325.686C546.531,328.924 538.97,345.987 531.491,363.606C512.55,408.226 512.543,408.242 511.236,407.807C510.592,407.592 504.608,393.767 497.94,377.084C476.251,322.827 474.636,319.675 465.889,314.549C462.962,312.833 446.986,305.61 430.389,298.497C389.734,281.073 384.114,278.419 384.114,276.64C384.114,275.263 406.609,264.907 445.523,248.37C453.393,245.027 462.056,240.987 464.775,239.395C475.017,233.395 478.448,227.076 497.949,178.297C505.098,160.411 511.477,145.954 512.122,146.169C512.767,146.383 515.519,152.164 518.238,159.013Z" style="fill:white;"/>
        </g>
        <g id="path2" transform="matrix(1.008932,0,0,1.008932,-50.123877,-51.066028)">
            <path d="M316.058,360.505C328.964,392.403 331.474,397.876 334.801,401.35C337.86,404.545 349.66,410.466 379.704,423.879C390.296,428.608 399.092,433.213 399.25,434.113C399.442,435.197 394.519,437.889 384.661,442.089C360.697,452.301 342.059,461.396 337.914,464.901C334.28,467.973 327.615,479.603 324.211,488.809C318.711,503.69 306.17,531.507 304.847,531.762C303.783,531.968 300.965,526.168 296.339,514.255C284.106,482.752 277.496,468.809 272.858,464.729C270.544,462.694 261.207,457.785 252.106,453.823C243.007,449.859 231.886,445.011 227.392,443.049C222.899,441.087 217.266,438.643 214.876,437.616C209.703,435.395 209.273,433.224 213.678,431.565C217.575,430.097 244.449,418.065 258.926,411.306C264.714,408.604 271.333,404.74 273.633,402.719C278.158,398.746 278.631,397.77 293.936,360.723C299.58,347.061 304.691,336.047 305.294,336.249C305.898,336.45 310.741,347.365 316.058,360.505Z" style="fill:white;"/>
        </g>
        <g id="path3" transform="matrix(1.008932,0,0,1.008932,-50.123877,-51.066028)">
            <path d="M525.404,682.265C538.544,714.1 541.051,718.988 546.304,722.994C549.756,725.627 564.57,732.651 595.035,746.098C602.721,749.491 608.875,752.665 608.712,753.152C608.55,753.639 601.315,757.274 592.635,761.231C557.432,777.275 546.127,783.179 543.16,787.069C541.598,789.118 534.45,804.869 527.277,822.072C515.097,851.281 512.803,856.136 511.731,854.975C511.499,854.724 507.517,845.282 502.882,833.993C489.533,801.477 484.589,790.726 481.221,786.891C477.833,783.031 467.927,777.694 450.165,770.156C427.797,760.663 415.275,754.711 415.284,753.575C415.289,752.936 419.197,750.773 423.968,748.768C446.208,739.422 475.658,725.446 479.464,722.431C482.31,720.177 484.834,716.645 487.242,711.544C490.143,705.399 507.836,661.942 510.386,654.695C510.76,653.634 511.63,652.953 512.319,653.184C513.008,653.413 518.897,666.501 525.404,682.265Z" style="fill:white;"/>
        </g>
        <g id="path4" transform="matrix(1.008932,0,0,1.008932,-50.123877,-51.066028)">
            <path d="M740.036,522.825C753.65,556.092 755.728,560.41 760.168,564.623C763.261,567.559 797.034,584.08 820.889,594.328C826.332,596.666 830.614,599.099 830.402,599.732C830.192,600.365 818.198,606.253 803.75,612.815C763.53,631.08 761.561,632.271 756.74,641.241C754.071,646.206 746.492,663.726 732.943,696.252C730.056,703.179 727.848,706.988 726.838,706.779C725.968,706.599 724.263,704.083 723.05,701.188C721.835,698.294 716.304,684.897 710.758,671.419C698.172,640.843 695.997,636.552 691.229,632.915C687.572,630.124 672.298,622.646 661.106,618.164C658.211,617.004 650.58,613.575 644.147,610.543C637.713,607.509 630.171,604.033 627.383,602.814C624.595,601.598 622.502,600.038 622.733,599.348C622.963,598.658 634.98,592.965 649.438,586.695C688.263,569.86 691.125,568.374 694.992,563.035C698.336,558.418 707.773,537.062 719.63,507.272C724.48,495.086 726.116,492.046 727.185,493.237C727.935,494.072 733.718,507.387 740.036,522.825Z" style="fill:white;"/>
        </g>
        <g id="path6" transform="matrix(1.008932,0,0,1.008932,-50.123877,-51.066028)">
            <path d="M865.879,75.654C877.577,93.295 883.383,108.914 885.896,129.5C889.589,159.753 882.986,196.573 867.825,230.279C851.366,266.869 820.817,310.119 782.106,351.633C741.623,395.048 705.178,428.803 658.5,466.113C610.836,504.212 569.259,533.081 482.5,588.316C458.352,603.69 446.921,610.698 423.368,624.566C371.091,655.348 333.482,683.394 301.489,715.455C258.893,758.141 234.122,800.387 225.529,845C222.919,858.551 222.432,879.503 224.425,892.5C226.398,905.373 229.246,916.537 232.024,922.285C233.887,926.141 234.542,929 233.563,929C233.323,929 227.81,926.619 221.313,923.708C169.675,900.575 139.046,859.163 139.008,812.426C138.981,780.912 154.392,744.063 181.844,710C216.287,667.261 267.181,628.518 346,585.034C388.041,561.84 395.985,557.407 416.255,545.823C505.083,495.061 585.525,439.739 656.5,380.599C725.787,322.867 782.565,257.544 818.851,193.817C835.846,163.97 845.943,138.7 852.381,109.897C854.966,98.332 858,76.673 858,69.78C858,67.701 858.337,66.008 858.75,66.017C859.163,66.026 862.371,70.363 865.879,75.654Z" style="fill:rgb(88,170,254);"/>
        </g>
    </g>
</svg>
