<?xml version="1.0" encoding="UTF-8" standalone="no"?>
<!DOCTYPE svg PUBLIC "-//W3C//DTD SVG 1.1//EN" "http://www.w3.org/Graphics/SVG/1.1/DTD/svg11.dtd">
<svg width="100%" height="100%" viewBox="0 0 954 275" version="1.1" xmlns="http://www.w3.org/2000/svg" xmlns:xlink="http://www.w3.org/1999/xlink" xml:space="preserve" xmlns:serif="http://www.serif.com/" style="fill-rule:evenodd;clip-rule:evenodd;stroke-linejoin:round;stroke-miterlimit:2;">
    <g transform="matrix(1,0,0,1,-166,-300)">
        <path d="M414.64,451.833L413.41,545.227L471.476,547.884L472.705,454.491L414.64,451.833Z" style="fill:rgb(110,174,215);fill-rule:nonzero;"/>
        <path d="M415.894,356.543L414.664,450.028L472.729,452.686L473.959,359.201L415.894,356.543Z" style="fill:rgb(239,112,102);fill-rule:nonzero;"/>
        <path d="M344.17,446.17L342.942,539.565L400.914,542.218L402.143,448.824L344.17,446.17Z" style="fill:rgb(253,219,29);fill-rule:nonzero;"/>
        <path d="M345.415,351.602L344.195,444.365L402.166,447.018L403.387,354.255L345.415,351.602Z" style="fill:rgb(168,206,129);fill-rule:nonzero;"/>
        <path d="M469.58,464.459C456.812,467.848 440.312,470.343 421.051,469.462C419.836,469.316 418.619,469.351 417.498,469.299L416.543,541.849C417.941,542.184 419.25,542.244 420.751,542.042C439.728,543.181 456.039,540.767 468.711,537.646L469.58,464.459ZM470.851,367.998C455.076,371.851 438.737,373.504 422.322,372.909C421.109,372.673 419.893,372.617 418.769,372.746L417.79,447.101C419.192,447.256 420.5,447.406 421.998,447.294C440.977,448.343 457.288,445.929 469.966,442.356L470.851,367.998ZM499.426,556.929C499.426,556.929 469.334,575.596 420.804,573.557C372.185,571.06 342.472,553.899 342.66,553.908L343.091,521.152C342.901,521.323 362.106,533.67 395.521,539.623L396.485,466.442C362.879,460.751 343.963,447.785 343.96,447.966L344.352,425.321C344.352,425.321 362.978,438.995 396.768,444.966L397.763,369.347C370.034,364.918 351.524,356.667 345.301,353.222L345.717,321.639C353.521,325.789 380.866,338.055 421.447,339.913C469.973,342.224 500.056,324.279 500.052,324.55L499.426,556.929ZM309.243,505.337L308.819,537.461L339.129,551.94L339.553,519.816L309.243,505.337ZM311.866,306.005L311.443,338.128L341.754,352.608L342.169,321.025L311.866,306.005ZM311.397,341.648L311.013,370.794L341.322,385.363L341.707,356.127L311.397,341.648ZM309.673,472.58L309.29,501.727L339.6,516.207L339.984,487.06L309.673,472.58ZM310.535,407.159L310.151,436.305L340.461,450.786L340.845,421.639L310.535,407.159ZM310.966,374.403L310.582,403.55L340.891,418.03L341.276,388.883L310.966,374.403ZM310.105,439.825L309.72,469.062L340.03,483.541L340.414,454.305L310.105,439.825ZM275.807,500.827L275.479,525.822L304.667,540.25L305.003,514.623L275.807,500.827ZM167.778,526.852L167.637,537.59L179.535,543.462L179.676,532.724L167.778,526.852ZM245.286,502.41L245.029,521.991L270.592,534.537L270.852,514.867L245.286,502.41ZM217.703,508.28L217.506,523.169L238.334,533.061L238.53,518.171L217.703,508.28ZM192.401,518.408L192.245,530.319L209.543,538.244L209.691,526.965L192.401,518.408ZM277.123,400.845L276.795,425.84L305.991,439.636L306.32,414.641L277.123,400.845ZM169.093,426.87L168.952,437.608L180.85,443.48L180.999,432.2L169.093,426.87ZM246.602,402.428L246.344,422.098L271.909,434.555L272.167,414.884L246.602,402.428ZM219.018,408.298L218.822,423.187L239.649,433.079L239.846,418.19L219.018,408.298ZM193.718,418.427L193.568,429.796L210.859,438.262L211.007,426.983L193.718,418.427ZM278.431,301.494L278.102,326.49L307.29,340.918L307.619,315.922L278.431,301.494ZM170.402,327.52L170.253,338.799L182.158,344.13L182.3,333.392L170.402,327.52ZM247.903,303.618L247.652,322.658L273.216,335.205L273.468,316.074L247.903,303.618ZM220.319,309.489L220.13,323.837L240.957,333.728L241.146,319.381L220.319,309.489ZM195.017,319.708L194.868,330.987L212.166,338.912L212.315,327.632L195.017,319.708Z" style="fill:rgb(0,1,1);fill-rule:nonzero;"/>
        <path d="M195.808,487.052L195.668,497.701L208.213,504.234L208.353,493.586L195.808,487.052ZM279.853,470.674L279.58,491.429L303.291,502.626L303.557,482.413L279.853,470.674ZM248.677,472.227L248.451,489.462L269.831,499.921L270.058,482.686L248.677,472.227ZM221.11,476.834L220.937,490.009L237.58,497.903L237.752,484.819L221.11,476.834ZM168.839,495.931L168.722,504.864L178.205,509.452L178.323,500.518L168.839,495.931ZM196.239,454.297L196.098,465.035L208.642,471.569L208.783,460.83L196.239,454.297ZM280.284,437.918L280.01,458.763L303.713,470.502L303.986,449.748L280.284,437.918ZM249.101,440.012L248.881,456.706L270.261,467.255L270.489,449.93L249.101,440.012ZM221.54,444.168L221.368,457.252L238.011,465.148L238.177,452.605L221.54,444.168ZM169.271,463.175L169.145,472.741L178.628,477.328L178.753,467.762L169.271,463.175Z" style="fill:rgb(253,219,29);fill-rule:nonzero;"/>
        <path d="M197.124,387.071L196.983,397.809L209.536,403.711L209.677,392.972L197.124,387.071ZM281.178,370.06L280.904,390.905L304.605,402.734L304.879,381.89L281.178,370.06ZM249.993,372.245L249.767,389.48L271.155,399.398L271.375,382.704L249.993,372.245ZM222.425,376.942L222.261,389.395L238.904,397.289L239.068,384.837L222.425,376.942ZM170.164,395.317L170.038,404.882L179.521,409.47L179.645,399.995L170.164,395.317ZM197.555,354.315L197.414,365.053L209.967,370.955L210.108,360.217L197.555,354.315ZM281.6,337.936L281.334,358.149L305.036,369.979L305.311,349.134L281.6,337.936ZM250.424,339.489L250.198,356.724L271.578,367.273L271.805,349.948L250.424,339.489ZM222.857,344.187L222.692,356.64L239.327,365.166L239.499,352.082L222.857,344.187ZM170.586,363.193L170.469,372.127L179.952,376.714L180.07,367.781L170.586,363.193Z" style="fill:rgb(168,206,129);fill-rule:nonzero;"/>
    </g>
    <g transform="matrix(0.903777,0,0,1,-174.3046,-300)">
        <g transform="matrix(1,0,0,1,585.487,378.593)">
            <path d="M2.622,-41.496L2.622,0.969L10.146,0.969L10.146,-24.624L17.043,1.026L23.427,1.026L30.324,-24.624L30.324,0.969L37.905,0.969L37.905,-41.496L28.215,-41.496L20.235,-12.825L12.312,-41.496L2.622,-41.496Z" style="fill:white;fill-rule:nonzero;"/>
            <path d="M51.186,-28.443L43.605,-28.443L43.605,0.969L51.186,0.969L51.186,-28.443ZM51.186,-41.496L43.605,-41.496L43.605,-35.055L51.186,-35.055L51.186,-41.496Z" style="fill:white;fill-rule:nonzero;"/>
            <path d="M77.064,-19.038L84.645,-19.038C84.075,-24.966 79.572,-30.723 71.307,-30.723C64.011,-30.723 57,-25.08 57,-14.307C57,-3.705 64.182,1.995 71.307,1.995C79.401,1.995 84.303,-4.275 84.702,-9.975L77.121,-9.975C77.064,-9.69 75.81,-4.56 71.307,-4.56C66.69,-4.56 64.524,-9.063 64.524,-14.307C64.524,-19.722 66.69,-24.111 71.307,-24.111C75.924,-24.111 77.007,-19.266 77.064,-19.038Z" style="fill:white;fill-rule:nonzero;"/>
            <path d="M116.565,-20.463C116.565,-24.054 114.057,-30.666 106.989,-30.723C100.776,-30.723 98.097,-26.505 97.926,-26.277L97.926,-41.553L90.345,-41.553L90.345,0.969L97.926,0.969L97.926,-18.126C97.926,-21.147 100.491,-24.111 103.854,-24.111C107.388,-24.111 108.984,-21.66 108.984,-18.012L108.984,0.969L116.565,0.969L116.565,-20.463Z" style="fill:white;fill-rule:nonzero;"/>
            <path d="M130.53,-19.437C130.245,-22.629 132.696,-24.054 136.173,-24.054C139.707,-24.054 141.474,-22.344 141.588,-20.349C141.645,-19.038 140.676,-18.525 140.106,-18.183C138.225,-17.328 134.691,-16.872 132.354,-16.758C127.395,-16.53 121.98,-14.706 121.98,-6.327C121.98,-0.456 127.338,2.109 130.986,2.109C138.852,2.109 141.531,-2.451 141.645,-2.679C141.645,-2.622 141.702,-1.311 141.873,-0.57C142.044,0.228 142.443,0.969 142.443,1.026L150.423,1.026C150.366,0.969 149.682,0.114 149.454,-1.995C149.112,-4.902 149.169,-9.975 149.169,-10.887L149.169,-18.753C149.169,-25.878 145.977,-30.609 136.059,-30.609C127.851,-30.609 123.063,-26.79 123.006,-19.437L130.53,-19.437ZM141.645,-10.659C141.645,-10.545 141.816,-8.892 140.619,-7.467C139.365,-5.928 137.826,-5.244 135.603,-4.617C133.323,-3.99 129.789,-4.446 129.561,-7.068C129.333,-10.26 131.898,-10.83 136.059,-11.172C138.453,-11.343 141.474,-12.882 141.645,-12.939L141.645,-10.659Z" style="fill:white;fill-rule:nonzero;"/>
            <path d="M163.647,-18.126C164.103,-21.261 166.383,-24.168 169.974,-24.168C173.793,-24.168 176.13,-21.432 176.415,-18.126L163.647,-18.126ZM163.248,-13.281L184.167,-13.281C184.68,-24.054 177.783,-30.723 170.259,-30.723C161.709,-30.723 155.724,-23.541 155.724,-14.364C155.724,-4.959 161.709,1.995 170.259,1.995C180.006,1.995 183.768,-5.814 183.882,-9.348L176.643,-9.348C176.586,-9.12 175.104,-4.56 170.259,-4.56C166.326,-4.56 163.191,-8.037 163.248,-13.281Z" style="fill:white;fill-rule:nonzero;"/>
            <rect x="190.152" y="-41.61" width="7.581" height="42.579" style="fill:white;fill-rule:nonzero;"/>
            <path d="M203.604,-9.063C203.547,-8.493 202.92,1.881 217.17,1.995C223.896,2.052 230.793,-0.912 230.793,-8.493C230.793,-13.053 226.917,-15.618 221.046,-17.157C217.113,-18.183 211.926,-18.981 211.755,-21.147C211.641,-23.085 213.294,-24.567 216.828,-24.567C221.673,-24.567 222.015,-21.603 222.186,-20.178L229.767,-20.178C229.482,-23.883 227.316,-30.723 216.714,-30.723C209.076,-30.723 204.003,-27.018 204.117,-20.748C204.174,-16.53 207.765,-14.079 213.408,-12.654C218.937,-11.286 223.326,-10.374 223.155,-7.695C223.041,-5.301 220.761,-4.389 216.942,-4.389C212.325,-4.389 211.128,-6.84 211.128,-9.063L203.604,-9.063Z" style="fill:white;fill-rule:nonzero;"/>
            <path d="M250.23,-30.723C241.794,-30.723 235.866,-23.37 235.866,-14.25C235.866,-5.244 241.851,1.995 250.23,1.995C258.666,1.995 264.594,-5.187 264.594,-14.307C264.594,-23.37 258.666,-30.723 250.23,-30.723ZM257.013,-14.25C257.013,-8.664 254.448,-4.56 250.23,-4.56C245.955,-4.56 243.447,-8.721 243.447,-14.25C243.447,-19.95 245.955,-24.111 250.23,-24.111C254.448,-24.111 257.013,-20.007 257.013,-14.25Z" style="fill:white;fill-rule:nonzero;"/>
            <path d="M274.74,-23.313L274.74,0.969L282.321,0.969L282.321,-23.313L287.85,-23.313L287.85,-29.526L282.321,-29.526L282.321,-31.92C282.321,-32.376 282.321,-33.687 283.005,-34.371C283.746,-35.112 284.715,-35.055 285.855,-35.055L287.85,-35.055L287.85,-41.553L284.43,-41.553C280.326,-41.553 278.787,-41.325 276.849,-39.444C275.595,-38.19 274.74,-35.625 274.74,-32.205L274.74,-29.526L270.237,-29.526L270.237,-23.313L274.74,-23.313Z" style="fill:white;fill-rule:nonzero;"/>
            <path d="M298.566,-41.61L298.566,-29.583L293.778,-29.583L293.778,-23.598L298.566,-23.598L298.566,-9.063C298.566,-7.353 298.68,-3.135 301.017,-1.368C304.209,1.14 307.173,0.969 311.904,0.969L311.904,-5.643C311.733,-5.643 308.37,-5.529 307.344,-6.441C306.147,-7.467 306.147,-9.006 306.147,-10.317L306.147,-23.598L311.391,-23.598L311.391,-29.583L306.147,-29.583L306.147,-41.61L298.566,-41.61Z" style="fill:white;fill-rule:nonzero;"/>
        </g>
    </g>
    <g transform="matrix(0.777569,0,0,1,-165.187462,-300)">
        <g transform="matrix(1,0,0,1,662.38,549.168)">
            <path d="M9.165,-142.155L9.165,3.315L75.465,3.315C84.435,3.315 114.27,-4.095 114.27,-39.195C114.27,-67.08 90.48,-71.955 90.675,-72.15C91.65,-72.54 108.225,-79.17 108.225,-105.105C108.225,-135.33 81.705,-142.155 71.955,-142.155L9.165,-142.155ZM40.17,-117.195L64.545,-117.195C72.54,-117.195 78.39,-108.42 78.39,-100.035C78.39,-90.87 72.345,-83.07 64.545,-83.07L40.17,-83.07L40.17,-117.195ZM40.17,-59.865L68.835,-59.865C76.83,-59.865 84.435,-50.895 84.435,-40.755C84.24,-30.225 76.635,-21.45 68.64,-21.45L40.17,-21.45L40.17,-59.865Z" style="fill:white;fill-rule:nonzero;"/>
            <path d="M163.995,-97.305L134.745,-97.305L134.745,3.315L163.995,3.315L163.995,-97.305ZM163.995,-142.155L134.745,-142.155L134.745,-116.025L163.995,-116.025L163.995,-142.155Z" style="fill:white;fill-rule:nonzero;"/>
            <path d="M213.525,-91.845L213.525,-100.815L184.275,-100.815L184.275,3.315L213.525,3.315L213.525,-62.01C213.525,-71.175 222.69,-78.585 230.49,-78.585C239.265,-78.585 248.04,-71.565 248.04,-62.01L248.04,3.315L277.29,3.315L277.29,-70.005C277.29,-83.85 266.175,-104.91 242.775,-104.91C222.3,-104.91 213.915,-92.43 213.525,-91.845Z" style="fill:white;fill-rule:nonzero;"/>
            <path d="M296.4,-142.155L296.4,3.51L325.845,3.51L325.845,-7.215C326.43,-6.63 336.18,6.045 353.145,6.045C376.545,6.045 392.925,-17.355 392.925,-48.75C392.925,-79.17 376.35,-105.105 353.34,-105.105C335.01,-105.105 326.235,-91.455 325.845,-90.675L325.845,-142.155L296.4,-142.155ZM363.48,-48.945C363.48,-30.42 354.51,-20.085 344.565,-20.085C335.01,-20.085 325.845,-30.225 325.845,-48.75C325.845,-67.47 335.01,-78.78 344.565,-78.78C354.51,-78.78 363.48,-67.47 363.48,-48.945Z" style="fill:white;fill-rule:nonzero;"/>
            <path d="M460.395,-105.105C431.535,-105.105 411.255,-79.95 411.255,-48.75C411.255,-17.94 431.73,6.825 460.395,6.825C489.255,6.825 509.535,-17.745 509.535,-48.945C509.535,-79.95 489.255,-105.105 460.395,-105.105ZM480.285,-48.75C480.285,-33.54 473.07,-18.525 460.395,-18.525C447.525,-18.525 440.505,-33.54 440.505,-48.75C440.505,-64.155 447.525,-79.755 460.395,-79.755C473.07,-79.755 480.285,-64.155 480.285,-48.75Z" style="fill:white;fill-rule:nonzero;"/>
            <path d="M582.465,-101.01L569.985,-37.635L557.31,-101.01L527.475,-101.01L553.8,3.315L583.635,3.315L596.505,-58.695L608.985,3.315L638.82,3.315L665.34,-101.01L635.505,-101.01L622.635,-37.83L610.545,-101.01L582.465,-101.01Z" style="fill:white;fill-rule:nonzero;"/>
            <path d="M683.28,-31.005C683.28,-29.055 683.28,6.825 729.69,6.825C751.92,6.825 775.125,-2.34 776.295,-29.055C777.075,-45.435 762.645,-54.6 743.925,-59.475C730.47,-62.985 714.285,-64.545 714.285,-71.955C714.285,-78.585 719.55,-81.51 728.13,-81.705C742.365,-82.095 743.34,-69.615 743.34,-69.03L772.785,-69.03C771.81,-81.705 764.4,-105.105 728.13,-105.105C702,-105.105 684.84,-91.845 685.035,-70.98C685.23,-54.015 697.515,-46.995 716.625,-41.535C730.665,-37.635 746.655,-36.855 746.85,-27.69C747.045,-20.28 738.465,-17.355 729.3,-17.94C712.14,-19.305 712.725,-30.42 712.725,-31.005L683.28,-31.005Z" style="fill:white;fill-rule:nonzero;"/>
        </g>
    </g>
</svg>
