<?xml version="1.0" encoding="UTF-8" standalone="no"?>
<!DOCTYPE svg PUBLIC "-//W3C//DTD SVG 1.1//EN" "http://www.w3.org/Graphics/SVG/1.1/DTD/svg11.dtd">
<svg width="100%" height="100%" viewBox="0 0 4117 800" version="1.1" xmlns="http://www.w3.org/2000/svg" xmlns:xlink="http://www.w3.org/1999/xlink" xml:space="preserve" xmlns:serif="http://www.serif.com/" style="fill-rule:evenodd;clip-rule:evenodd;stroke-linejoin:round;stroke-miterlimit:2;">
    <g id="text7" transform="matrix(1,0,0,1,-155,-133)">
        <g id="path1">
        </g>
        <g id="path2">
        </g>
        <g id="path3">
        </g>
        <g id="path4">
        </g>
        <g id="path6">
        </g>
        <g transform="matrix(1,0,0,1,155.360886,133)">
            <rect x="0" y="0" width="1200" height="800" style="fill:rgb(0,60,166);"/>
        </g>
        <g id="a" transform="matrix(1,0,0,1,155.360886,133)">
            <path d="M692.896,679.225C688.908,683.783 683.747,688.042 678.883,691.969C647.449,659.484 610.546,623.481 575.469,623.481C553.722,623.481 538.059,640.036 519.787,651.716C494.427,667.925 459.643,677.053 429.835,665.158C413.802,659.069 398.268,650.102 386.659,635.535C410.12,651.716 445.253,653.892 471.741,642.903C501.018,630.756 530.816,614.629 564.178,614.629C613.362,614.629 660.105,647.898 692.896,679.227L692.896,679.225ZM329.394,577.056C361.958,614.124 415.066,602.198 458.537,611.456C464.588,612.744 470.271,614.753 476.766,613.757C471.599,610.479 464.748,610.11 458.779,607.862C425.05,595.155 419.792,559.057 401.332,534.214C424.91,549.887 444.442,571.346 466.489,591.51C481.832,605.545 500.948,611.551 520.775,615.585C516.011,617.326 509.779,616.916 504.648,618.188C469.035,627.023 429.551,640.968 391.656,628.463C367.2,620.393 341.752,601.281 329.394,577.056ZM277.198,491.265C297.509,537.252 348.541,540.853 382.472,569.064C388.924,574.429 395.32,579.367 402.407,582.671L402.773,582.301C394.943,575.217 386.47,566.774 380.405,557.963C361.012,529.783 367.466,491.267 352.513,461.392C366.098,477.659 378.84,494.408 386.663,513.033C399.251,543.006 403.528,577.198 431.761,599.972C401.205,589.891 365.953,591.898 338.437,573.876C309.514,554.931 282.708,525.028 277.198,491.265ZM255.44,398.227C258.377,438.743 301.511,460.385 322.08,493.69C326.472,500.804 330.992,508.147 337.372,513.891C336.378,509.578 332.828,505.756 330.873,501.523C324.278,487.233 321.292,470.696 322.938,453.691C324.943,433.002 333.568,413.789 330.258,392.024C347.986,430.29 342.267,478.128 352.513,519.503C354.779,528.656 360.353,536.667 363.788,545.336C346.369,532.085 323.542,520.323 304.423,505.252C285.932,490.678 269.882,473.595 261.54,451.367C255.529,435.35 253.964,416.245 255.44,398.227ZM256.645,323.576C258.725,314.533 260.317,305.174 264.252,296.879C256.804,335.099 282.23,362.707 290.911,395.774C294.183,408.235 295.302,421.474 300.341,433.103C300.811,433.354 301.218,432.866 301.508,432.49C288.964,397.299 307.353,364.776 325.267,337.037C329.975,329.746 332.243,321.256 334.441,312.672C336.378,328.603 332.987,347.045 330.04,363.483C326.246,384.647 319.012,404.483 313.264,424.903C309.478,437.659 310.476,452.057 312.419,465.422L310.592,463.965C297.255,439.343 270.94,420.108 262.993,393.234C256.642,371.756 252.248,346.942 256.645,323.576ZM270.712,282.463C270.712,253.54 281.974,229.947 298.867,208.406C299.357,208.162 299.706,207.671 300.338,207.785C281.743,236.074 298.668,271.782 296.279,303.867L293.826,336.797C294.19,337.037 294.19,338.026 295.055,337.647C296.153,333.975 296.486,330.07 297.126,326.279C301.603,299.732 324.913,281.253 344.684,262.511C349.206,258.23 352.725,253.001 354.989,247.201C353.346,260.425 349.657,273.982 343.72,286C328.503,316.807 299.113,341.675 293.826,376.686C291.263,343.132 270.712,318.188 270.712,282.463ZM319.732,184.899C329.082,174.53 339.563,166.453 352.04,163.26C327.812,179.919 329.128,209.694 321.71,234.591C318.997,243.694 315.011,252.222 312.891,261.63L313.505,262.119C317.535,251.484 324.451,241.26 333.463,232.758C350.504,216.681 376.125,206.948 384.558,183.43C384.173,216.112 356.313,240.956 330.869,260.175C319.455,268.797 309.758,280.371 303.84,292.505C304.828,283.474 305.277,275.961 304.472,267.146C301.86,238.597 300.165,206.591 319.732,184.899ZM418.073,129.95C400.092,145.729 388.095,166.038 374.279,184.295C362.791,199.48 347.026,208.888 333.469,221.63C340.786,206.446 342.138,189.049 351.432,174.36C367.324,149.242 393.591,139.493 418.073,129.95Z" style="fill:white;fill-rule:nonzero;"/>
        </g>
        <g id="a1" serif:id="a" transform="matrix(1,0,0,1,155.360886,133)">
            <path d="M507.104,679.225C511.092,683.783 516.253,688.042 521.117,691.969C552.551,659.484 589.454,623.481 624.531,623.481C646.278,623.481 661.941,640.036 680.213,651.716C705.573,667.925 740.357,677.053 770.165,665.158C786.198,659.069 801.732,650.102 813.341,635.535C789.88,651.716 754.747,653.892 728.259,642.903C698.982,630.756 669.184,614.629 635.822,614.629C586.638,614.629 539.895,647.898 507.104,679.227L507.104,679.225ZM870.606,577.056C838.042,614.124 784.934,602.198 741.463,611.456C735.412,612.744 729.729,614.753 723.234,613.757C728.401,610.479 735.252,610.11 741.221,607.862C774.95,595.155 780.208,559.057 798.668,534.214C775.09,549.887 755.558,571.346 733.511,591.51C718.168,605.545 699.052,611.551 679.225,615.585C683.989,617.326 690.221,616.916 695.352,618.188C730.965,627.023 770.449,640.968 808.344,628.463C832.8,620.393 858.248,601.281 870.606,577.056ZM922.802,491.265C902.491,537.252 851.459,540.853 817.528,569.064C811.076,574.429 804.68,579.367 797.593,582.671L797.227,582.301C805.057,575.217 813.53,566.774 819.595,557.963C838.988,529.783 832.534,491.267 847.487,461.392C833.902,477.659 821.16,494.408 813.337,513.033C800.749,543.006 796.472,577.198 768.239,599.972C798.795,589.891 834.047,591.898 861.563,573.876C890.486,554.931 917.292,525.028 922.802,491.265ZM944.56,398.227C941.623,438.743 898.489,460.385 877.92,493.69C873.528,500.804 869.008,508.147 862.628,513.891C863.622,509.578 867.172,505.756 869.127,501.523C875.722,487.233 878.708,470.696 877.062,453.691C875.057,433.002 866.432,413.789 869.742,392.024C852.014,430.29 857.733,478.128 847.487,519.503C845.221,528.656 839.647,536.667 836.212,545.336C853.631,532.085 876.458,520.323 895.577,505.252C914.068,490.678 930.118,473.595 938.46,451.367C944.471,435.35 946.036,416.245 944.56,398.227ZM943.355,323.576C941.275,314.533 939.683,305.174 935.748,296.879C943.196,335.099 917.77,362.707 909.089,395.774C905.817,408.235 904.698,421.474 899.659,433.103C899.189,433.354 898.782,432.866 898.492,432.49C911.036,397.299 892.647,364.776 874.733,337.037C870.025,329.746 867.757,321.256 865.559,312.672C863.622,328.603 867.013,347.045 869.96,363.483C873.754,384.647 880.988,404.483 886.736,424.903C890.522,437.659 889.524,452.057 887.581,465.422L889.408,463.965C902.745,439.343 929.06,420.108 937.007,393.234C943.358,371.756 947.752,346.942 943.355,323.576ZM929.288,282.463C929.288,253.54 918.026,229.947 901.133,208.406C900.643,208.162 900.294,207.671 899.662,207.785C918.257,236.074 901.332,271.782 903.721,303.867L906.174,336.797C905.81,337.037 905.81,338.026 904.945,337.647C903.847,333.975 903.514,330.07 902.874,326.279C898.397,299.732 875.087,281.253 855.316,262.511C850.794,258.23 847.275,253.001 845.011,247.201C846.654,260.425 850.343,273.982 856.28,286C871.497,316.807 900.887,341.675 906.174,376.686C908.737,343.132 929.288,318.188 929.288,282.463ZM880.268,184.899C870.918,174.53 860.437,166.453 847.96,163.26C872.188,179.919 870.872,209.694 878.29,234.591C881.003,243.694 884.989,252.222 887.109,261.63L886.495,262.119C882.465,251.484 875.549,241.26 866.537,232.758C849.496,216.681 823.875,206.948 815.442,183.43C815.827,216.112 843.687,240.956 869.131,260.175C880.545,268.797 890.242,280.371 896.16,292.505C895.172,283.474 894.723,275.961 895.528,267.146C898.14,238.597 899.835,206.591 880.268,184.899ZM781.927,129.95C799.908,145.729 811.905,166.038 825.721,184.295C837.209,199.48 852.974,208.888 866.531,221.63C859.214,206.446 857.862,189.049 848.568,174.36C832.676,149.242 806.409,139.493 781.927,129.95Z" style="fill:white;fill-rule:nonzero;"/>
        </g>
        <g transform="matrix(1,0,0,1,155.360886,133)">
            <path d="M603.032,190.891C604.354,194.22 607.082,201.117 609.095,206.218C614.287,219.378 618.031,226.517 620.784,228.512C622.003,229.396 627.379,232.015 632.728,234.333C638.079,236.652 643.5,239.027 644.775,239.611C646.05,240.195 650.484,242.102 654.628,243.849C658.773,245.595 662.163,247.352 662.163,247.753C662.163,248.154 656.686,250.907 649.992,253.871C621.579,266.451 620.19,267.225 617.641,271.907C616.785,273.481 613.11,281.775 609.474,290.34C600.267,312.029 600.264,312.036 599.629,311.825C599.316,311.72 596.407,305 593.166,296.891C582.623,270.518 581.838,268.986 577.586,266.494C576.163,265.66 568.398,262.149 560.33,258.691C540.569,250.222 537.837,248.932 537.837,248.067C537.837,247.398 548.771,242.364 567.687,234.325C571.512,232.7 575.723,230.737 577.045,229.963C582.023,227.046 583.691,223.975 593.17,200.264C596.645,191.57 599.746,184.543 600.059,184.647C600.373,184.751 601.711,187.561 603.032,190.891Z" style="fill:white;"/>
        </g>
        <g transform="matrix(1,0,0,1,155.360886,133)">
            <path d="M504.756,286.888C511.029,302.393 512.249,305.053 513.867,306.742C515.354,308.295 521.089,311.173 535.693,317.693C540.842,319.992 545.117,322.23 545.194,322.667C545.288,323.194 542.895,324.503 538.103,326.544C526.454,331.508 517.395,335.929 515.38,337.633C513.613,339.126 510.374,344.779 508.719,349.254C506.046,356.488 499.95,370.009 499.307,370.133C498.789,370.233 497.42,367.414 495.171,361.623C489.225,346.31 486.012,339.533 483.757,337.549C482.632,336.56 478.094,334.174 473.67,332.248C469.247,330.321 463.841,327.965 461.657,327.011C459.473,326.057 456.735,324.869 455.573,324.37C453.059,323.291 452.85,322.235 454.991,321.429C456.885,320.715 469.948,314.867 476.985,311.581C479.799,310.268 483.016,308.39 484.134,307.407C486.334,305.476 486.563,305.002 494.003,286.994C496.746,280.353 499.231,274.999 499.524,275.098C499.817,275.195 502.172,280.501 504.756,286.888Z" style="fill:white;"/>
        </g>
        <g transform="matrix(1,0,0,1,155.360886,133)">
            <path d="M606.516,443.776C612.903,459.25 614.121,461.626 616.675,463.574C618.353,464.853 625.554,468.268 640.362,474.804C644.098,476.453 647.089,477.996 647.01,478.233C646.931,478.47 643.415,480.236 639.195,482.16C622.084,489.959 616.589,492.828 615.147,494.719C614.387,495.715 610.913,503.372 607.426,511.734C601.506,525.932 600.391,528.292 599.869,527.727C599.757,527.605 597.821,523.016 595.568,517.528C589.079,501.723 586.676,496.497 585.039,494.633C583.392,492.756 578.577,490.162 569.943,486.498C559.071,481.884 552.984,478.991 552.988,478.438C552.991,478.128 554.89,477.076 557.209,476.102C568.02,471.559 582.335,464.765 584.185,463.3C585.568,462.204 586.795,460.487 587.966,458.008C589.376,455.021 597.976,433.897 599.216,430.375C599.397,429.859 599.82,429.528 600.155,429.64C600.49,429.751 603.353,436.113 606.516,443.776Z" style="fill:white;"/>
        </g>
        <g transform="matrix(1,0,0,1,155.360886,133)">
            <path d="M701.704,386.261C707.239,399.784 708.083,401.54 709.888,403.252C711.146,404.446 724.875,411.162 734.571,415.327C736.784,416.278 738.525,417.267 738.439,417.524C738.353,417.782 733.478,420.175 727.604,422.842C711.255,430.267 710.454,430.751 708.495,434.398C707.41,436.416 704.329,443.538 698.821,456.76C697.648,459.576 696.75,461.124 696.34,461.039C695.986,460.966 695.293,459.944 694.8,458.767C694.306,457.59 692.057,452.144 689.803,446.665C684.687,434.236 683.803,432.492 681.864,431.013C680.378,429.879 674.169,426.839 669.619,425.017C668.442,424.546 665.34,423.151 662.725,421.919C660.11,420.686 657.044,419.272 655.911,418.777C654.777,418.283 653.926,417.648 654.02,417.368C654.114,417.088 658.999,414.773 664.876,412.225C680.659,405.381 681.822,404.777 683.394,402.607C684.753,400.73 688.59,392.048 693.409,379.939C695.381,374.985 696.046,373.749 696.481,374.234C696.785,374.573 699.136,379.985 701.704,386.261Z" style="fill:white;"/>
        </g>
        <g transform="matrix(1,0,0,1,155.360886,133)">
            <path d="M809.368,274.004C812.142,280.577 816.912,295.386 818.935,303.704C823.265,321.509 825.15,337.59 825.171,356.881C825.205,389.643 819.779,416.105 806.833,446.321C789.149,487.594 760.427,521.871 722.007,547.553C691.721,567.797 657.013,580.313 619.686,584.447C609.861,585.535 587.74,585.518 576.668,584.414C572.257,583.973 568.32,583.517 567.919,583.4C567.518,583.283 564.783,582.838 561.843,582.411C550.38,580.751 531.476,575.79 519.522,571.305C507.64,566.846 492.839,560.156 493.222,559.416C493.314,559.238 497.149,552.51 501.744,544.466L510.099,529.84L513.034,531.238C517.491,533.361 532.009,539.038 538.024,541.01C554.253,546.331 571.51,549.36 589.306,550.013C631.757,551.569 668.553,541.338 702.563,518.519C745.786,489.521 776.345,445.167 786.132,397.226C789.027,383.042 790.069,372.542 790.1,357.262C790.143,335.791 788.361,324.468 780.95,299.122C780.773,298.517 781.383,297.509 782.863,295.962C784.059,294.713 788.19,290.081 792.044,285.67C795.898,281.259 799.27,277.403 799.537,277.102C799.804,276.801 801.554,274.806 803.426,272.67C805.297,270.533 806.961,268.92 807.124,269.086C807.286,269.251 808.297,271.465 809.368,274.004Z" style="fill:white;"/>
        </g>
        <g transform="matrix(1,0,0,1,155.360886,133)">
            <path d="M772.014,148.427C777.701,157.002 780.523,164.594 781.744,174.6C783.539,189.306 780.33,207.203 772.96,223.587C764.96,241.373 750.111,262.396 731.294,282.575C711.616,303.679 693.9,320.086 671.211,338.222C648.042,356.741 627.833,370.774 585.661,397.623C573.923,405.096 568.366,408.502 556.918,415.243C531.507,430.206 513.226,443.839 497.674,459.423C476.969,480.172 464.928,500.707 460.751,522.392C459.483,528.979 459.246,539.164 460.215,545.481C461.174,551.739 462.558,557.165 463.909,559.959C464.814,561.834 465.133,563.223 464.657,563.223C464.54,563.223 461.86,562.066 458.702,560.651C433.602,549.406 418.714,529.277 418.695,506.559C418.682,491.24 426.173,473.329 439.517,456.771C456.259,435.997 480.998,417.164 519.31,396.028C539.746,384.753 543.607,382.599 553.46,376.968C596.638,352.293 635.739,325.402 670.239,296.655C703.918,268.593 731.517,236.84 749.155,205.864C757.416,191.356 762.324,179.072 765.453,165.072C766.71,159.45 768.185,148.922 768.185,145.572C768.185,144.561 768.348,143.738 768.549,143.742C768.75,143.747 770.309,145.855 772.014,148.427Z" style="fill:white;"/>
        </g>
        <g transform="matrix(1,0,0,1,155.360886,133)">
            <path d="M618.471,132.313C619.674,132.458 622.846,132.797 625.519,133.067C650.795,135.618 679.447,143.881 700.751,154.764L705.987,157.438L705.055,158.971C704.542,159.814 700.789,166.301 696.715,173.385C692.642,180.47 689.149,186.445 688.954,186.663C688.758,186.88 686.108,185.928 683.064,184.546C637.511,163.865 585.739,160.638 539.24,175.58C514.256,183.609 488.061,198.871 469.487,216.22C467.348,218.218 465.214,220.17 464.744,220.559C461.285,223.417 446.398,240.7 446.398,241.857C446.398,242.161 446.208,242.409 445.977,242.409C445.385,242.409 438.84,251.828 434.999,258.207C413.801,293.41 404.358,336.323 408.737,377.54C409.552,385.213 410.428,390.582 412.207,398.811C412.916,402.089 413.407,404.846 413.299,404.938C409.785,407.903 383.956,426.118 383.673,425.831C382.756,424.901 378.963,410.66 377.131,401.266C373.673,383.543 372.767,372.172 373.149,351.318C373.42,336.556 373.647,333.97 375.95,319.509C380.93,288.239 393.006,257.435 410.557,231.229C419.85,217.355 426.677,209.057 438.578,197.173C453.097,182.675 463.607,174.444 480.834,164.08C504.738,149.7 532.164,139.483 558.986,134.967C575.531,132.182 583.328,131.597 600.729,131.835C609.284,131.953 617.268,132.167 618.471,132.313Z" style="fill:white;"/>
        </g>
        <g transform="matrix(1.301898,0,0,1.301898,-724.5199,201.392349)">
            <path d="M1647.273,217.731L1647.273,195.231L1677.423,195.231L1677.423,208.506L1684.848,215.931L1731.423,215.931L1739.073,208.281L1739.073,182.181L1731.648,174.756L1672.023,174.756L1647.723,150.456L1647.723,108.831L1672.023,84.531L1743.123,84.531L1767.423,108.831L1767.423,131.556L1737.273,131.556L1737.273,118.056L1729.848,110.631L1685.298,110.631L1677.873,118.056L1677.873,141.231L1685.298,148.656L1744.923,148.656L1769.223,172.956L1769.223,217.281L1744.473,242.031L1671.573,242.031L1647.273,217.731Z" style="fill:white;fill-rule:nonzero;"/>
            <path d="M1793.973,84.531L1824.573,84.531L1824.573,150.456L1891.173,150.456L1891.173,84.531L1921.773,84.531L1921.773,242.031L1891.173,242.031L1891.173,176.556L1824.573,176.556L1824.573,242.031L1793.973,242.031L1793.973,84.531Z" style="fill:white;fill-rule:nonzero;"/>
            <rect x="1952.148" y="84.531" width="30.6" height="157.5" style="fill:white;fill-rule:nonzero;"/>
            <path d="M2013.123,84.531L2040.573,84.531L2110.998,191.406L2110.998,84.531L2140.698,84.531L2140.698,242.031L2113.248,242.031L2042.823,135.381L2042.823,242.031L2013.123,242.031L2013.123,84.531Z" style="fill:white;fill-rule:nonzero;"/>
            <path d="M2166.573,217.731L2166.573,195.231L2196.723,195.231L2196.723,208.506L2204.148,215.931L2250.723,215.931L2258.373,208.281L2258.373,182.181L2250.948,174.756L2191.323,174.756L2167.023,150.456L2167.023,108.831L2191.323,84.531L2262.423,84.531L2286.723,108.831L2286.723,131.556L2256.573,131.556L2256.573,118.056L2249.148,110.631L2204.598,110.631L2197.173,118.056L2197.173,141.231L2204.598,148.656L2264.223,148.656L2288.523,172.956L2288.523,217.281L2263.773,242.031L2190.873,242.031L2166.573,217.731Z" style="fill:white;fill-rule:nonzero;"/>
            <path d="M2313.273,84.531L2427.123,84.531L2427.123,110.406L2343.873,110.406L2343.873,150.231L2420.598,150.231L2420.598,175.656L2343.873,175.656L2343.873,216.156L2427.123,216.156L2427.123,242.031L2313.273,242.031L2313.273,84.531Z" style="fill:white;fill-rule:nonzero;"/>
            <rect x="2450.748" y="84.531" width="30.6" height="157.5" style="fill:white;fill-rule:nonzero;"/>
            <path d="M2570.673,216.156L2570.673,110.406L2596.548,84.531L2673.498,84.531L2698.923,109.956L2698.923,134.031L2668.323,134.031L2668.323,121.206L2657.748,110.631L2612.748,110.631L2601.273,122.106L2601.273,204.456L2612.748,215.931L2657.748,215.931L2668.323,205.356L2668.323,192.531L2698.923,192.531L2698.923,216.606L2673.498,242.031L2596.548,242.031L2570.673,216.156Z" style="fill:white;fill-rule:nonzero;"/>
            <path d="M2718.048,216.156L2718.048,110.406L2743.923,84.531L2824.923,84.531L2850.798,110.406L2850.798,216.156L2824.923,242.031L2743.923,242.031L2718.048,216.156ZM2808.723,215.931L2820.198,204.456L2820.198,122.106L2808.723,110.631L2760.123,110.631L2748.648,122.106L2748.648,204.456L2760.123,215.931L2808.723,215.931Z" style="fill:white;fill-rule:nonzero;"/>
            <path d="M2877.798,84.531L2905.248,84.531L2975.673,191.406L2975.673,84.531L3005.373,84.531L3005.373,242.031L2977.923,242.031L2907.498,135.381L2907.498,242.031L2877.798,242.031L2877.798,84.531Z" style="fill:white;fill-rule:nonzero;"/>
            <path d="M3032.373,216.156L3032.373,110.406L3058.248,84.531L3135.198,84.531L3160.623,109.956L3160.623,134.031L3130.023,134.031L3130.023,121.206L3119.448,110.631L3074.448,110.631L3062.973,122.106L3062.973,204.456L3074.448,215.931L3119.448,215.931L3130.023,205.356L3130.023,192.531L3160.623,192.531L3160.623,216.606L3135.198,242.031L3058.248,242.031L3032.373,216.156Z" style="fill:white;fill-rule:nonzero;"/>
            <path d="M3179.748,216.156L3179.748,110.406L3205.623,84.531L3286.623,84.531L3312.498,110.406L3312.498,216.156L3286.623,242.031L3205.623,242.031L3179.748,216.156ZM3270.423,215.931L3281.898,204.456L3281.898,122.106L3270.423,110.631L3221.823,110.631L3210.348,122.106L3210.348,204.456L3221.823,215.931L3270.423,215.931Z" style="fill:white;fill-rule:nonzero;"/>
            <path d="M3463.248,189.831L3463.248,242.031L3432.648,242.031L3432.648,196.806L3419.148,181.731L3370.098,181.731L3370.098,242.031L3339.498,242.031L3339.498,84.531L3438.273,84.531L3462.348,108.831L3462.348,156.531L3447.048,172.056L3463.248,189.831ZM3370.098,156.531L3424.323,156.531L3432.198,148.656L3432.198,118.056L3424.323,110.181L3370.098,110.181L3370.098,156.531Z" style="fill:white;fill-rule:nonzero;"/>
            <path d="M3491.373,84.531L3592.173,84.531L3619.173,111.531L3619.173,215.031L3592.173,242.031L3491.373,242.031L3491.373,84.531ZM3577.098,215.931L3588.573,204.456L3588.573,122.106L3577.098,110.631L3521.973,110.631L3521.973,215.931L3577.098,215.931Z" style="fill:white;fill-rule:nonzero;"/>
            <rect x="3647.298" y="84.531" width="30.6" height="157.5" style="fill:white;fill-rule:nonzero;"/>
            <path d="M3752.373,84.531L3780.273,84.531L3837.873,242.031L3806.823,242.031L3793.998,207.156L3738.648,207.156L3725.823,242.031L3694.773,242.031L3752.373,84.531ZM3787.248,181.956L3766.323,122.106L3765.873,122.106L3745.623,181.956L3787.248,181.956Z" style="fill:white;fill-rule:nonzero;"/>
        </g>
        <g transform="matrix(0.853311,0,0,0.853311,-198.109425,165.291875)">
            <path d="M1994.484,686.963L1895.484,686.963L1895.484,667.163L1933.959,667.163L1933.959,547.013L1896.609,547.013L1896.609,527.213L1993.359,527.213L1993.359,547.013L1956.009,547.013L1956.009,667.163L1994.484,667.163L1994.484,686.963Z" style="fill:white;fill-rule:nonzero;"/>
            <path d="M2022.159,527.213L2047.134,527.213C2054.034,539.513 2060.597,552.188 2066.822,565.238C2073.047,578.288 2078.934,591.713 2084.484,605.513C2090.034,591.713 2095.922,578.288 2102.147,565.238C2108.372,552.188 2114.934,539.513 2121.834,527.213L2146.809,527.213L2146.809,686.963L2124.759,686.963L2124.759,563.438C2119.209,573.788 2113.847,584.401 2108.672,595.276C2103.497,606.151 2098.509,617.213 2093.709,628.463L2075.259,628.463C2070.459,617.213 2065.472,606.151 2060.297,595.276C2055.122,584.401 2049.759,573.788 2044.209,563.438L2044.209,686.963L2022.159,686.963L2022.159,527.213Z" style="fill:white;fill-rule:nonzero;"/>
            <path d="M2168.184,686.963L2168.184,527.213L2229.609,527.213C2247.909,527.213 2261.297,531.788 2269.772,540.938C2278.247,550.088 2282.484,562.313 2282.484,577.613C2282.484,592.913 2278.134,605.138 2269.434,614.288C2260.734,623.438 2247.459,628.013 2229.609,628.013L2190.234,628.013L2190.234,686.963L2168.184,686.963ZM2190.234,608.213L2229.609,608.213C2240.259,608.213 2248.134,605.288 2253.234,599.438C2258.334,593.588 2260.884,586.313 2260.884,577.613C2260.884,568.313 2258.334,560.888 2253.234,555.338C2248.134,549.788 2240.259,547.013 2229.609,547.013L2190.234,547.013L2190.234,608.213Z" style="fill:white;fill-rule:nonzero;"/>
            <path d="M2313.984,686.963L2313.984,527.213L2414.559,527.213L2414.559,547.013L2336.259,547.013L2336.259,593.813L2409.159,593.813L2409.159,613.613L2336.259,613.613L2336.259,667.163L2416.359,667.163L2416.359,686.963L2313.984,686.963Z" style="fill:white;fill-rule:nonzero;"/>
            <path d="M2447.859,686.963L2447.859,527.213L2504.784,527.213C2523.084,527.213 2536.472,531.413 2544.947,539.813C2553.422,548.213 2557.659,560.063 2557.659,575.363C2557.659,587.663 2554.622,597.863 2548.547,605.963C2542.472,614.063 2533.284,619.388 2520.984,621.938L2563.734,684.713L2563.734,686.963L2539.659,686.963L2497.584,623.513L2469.909,623.513L2469.909,686.963L2447.859,686.963ZM2469.909,603.713L2504.784,603.713C2515.434,603.713 2523.309,601.051 2528.409,595.726C2533.509,590.401 2536.059,583.613 2536.059,575.363C2536.059,556.463 2525.634,547.013 2504.784,547.013L2469.909,547.013L2469.909,603.713Z" style="fill:white;fill-rule:nonzero;"/>
            <path d="M2691.984,686.963L2592.984,686.963L2592.984,667.163L2631.459,667.163L2631.459,547.013L2594.109,547.013L2594.109,527.213L2690.859,527.213L2690.859,547.013L2653.509,547.013L2653.509,667.163L2691.984,667.163L2691.984,686.963Z" style="fill:white;fill-rule:nonzero;"/>
            <path d="M2720.784,686.963C2728.434,652.763 2736.309,622.351 2744.409,595.726C2752.509,569.101 2761.134,546.263 2770.284,527.213L2793.684,527.213C2802.984,546.263 2811.647,569.101 2819.672,595.726C2827.697,622.351 2835.534,652.763 2843.184,686.963L2820.459,686.963C2818.959,680.363 2817.459,673.876 2815.959,667.501C2814.459,661.126 2813.034,654.863 2811.684,648.713L2752.284,648.713C2750.934,654.863 2749.509,661.126 2748.009,667.501C2746.509,673.876 2745.009,680.363 2743.509,686.963L2720.784,686.963ZM2757.234,628.913L2806.734,628.913C2802.834,613.613 2798.859,599.288 2794.809,585.938C2790.759,572.588 2786.484,560.288 2781.984,549.038C2777.484,560.288 2773.209,572.588 2769.159,585.938C2765.109,599.288 2761.134,613.613 2757.234,628.913Z" style="fill:white;fill-rule:nonzero;"/>
            <path d="M2874.459,686.963L2874.459,527.213L2896.509,527.213L2896.509,667.163L2973.009,667.163L2973.009,686.963L2874.459,686.963Z" style="fill:white;fill-rule:nonzero;"/>
            <path d="M3202.509,610.463L3260.109,610.463L3260.109,672.563C3252.309,679.013 3244.434,683.626 3236.484,686.401C3228.534,689.176 3219.234,690.563 3208.584,690.563C3194.184,690.563 3181.847,687.263 3171.572,680.663C3161.297,674.063 3153.422,664.576 3147.947,652.201C3142.472,639.826 3139.734,625.013 3139.734,607.763C3139.734,581.363 3145.547,560.738 3157.172,545.888C3168.797,531.038 3185.934,523.613 3208.584,523.613C3218.334,523.613 3227.147,524.851 3235.022,527.326C3242.897,529.801 3249.534,532.988 3254.934,536.888L3244.809,552.863C3239.409,548.963 3233.409,546.376 3226.809,545.101C3220.209,543.826 3214.284,543.263 3209.034,543.413C3192.534,543.713 3180.534,549.563 3173.034,560.963C3165.534,572.363 3161.784,587.963 3161.784,607.763C3161.784,627.263 3165.947,642.563 3174.272,653.663C3182.597,664.763 3194.034,670.313 3208.584,670.313C3219.684,670.313 3229.509,667.913 3238.059,663.113L3238.059,630.263L3202.509,630.263L3202.509,610.463Z" style="fill:white;fill-rule:nonzero;"/>
            <path d="M3339.984,690.563C3328.884,690.563 3319.472,688.426 3311.747,684.151C3304.022,679.876 3297.759,673.913 3292.959,666.263C3288.159,658.613 3284.672,649.763 3282.497,639.713C3280.322,629.663 3279.234,618.788 3279.234,607.088C3279.234,595.388 3280.322,584.513 3282.497,574.463C3284.672,564.413 3288.159,555.563 3292.959,547.913C3297.759,540.263 3304.022,534.301 3311.747,530.026C3319.472,525.751 3328.884,523.613 3339.984,523.613C3351.084,523.613 3360.497,525.751 3368.222,530.026C3375.947,534.301 3382.209,540.263 3387.009,547.913C3391.809,555.563 3395.297,564.413 3397.472,574.463C3399.647,584.513 3400.734,595.388 3400.734,607.088C3400.734,618.788 3399.647,629.663 3397.472,639.713C3395.297,649.763 3391.809,658.613 3387.009,666.263C3382.209,673.913 3375.947,679.876 3368.222,684.151C3360.497,688.426 3351.084,690.563 3339.984,690.563ZM3339.984,670.538C3347.784,670.538 3354.197,668.851 3359.222,665.476C3364.247,662.101 3368.147,657.451 3370.922,651.526C3373.697,645.601 3375.647,638.813 3376.772,631.163C3377.897,623.513 3378.459,615.488 3378.459,607.088C3378.459,598.688 3377.897,590.663 3376.772,583.013C3375.647,575.363 3373.697,568.576 3370.922,562.651C3368.147,556.726 3364.247,552.076 3359.222,548.701C3354.197,545.326 3347.784,543.638 3339.984,543.638C3332.184,543.638 3325.809,545.326 3320.859,548.701C3315.909,552.076 3312.009,556.726 3309.159,562.651C3306.309,568.576 3304.322,575.363 3303.197,583.013C3302.072,590.663 3301.509,598.688 3301.509,607.088C3301.509,615.488 3302.072,623.513 3303.197,631.163C3304.322,638.813 3306.309,645.601 3309.159,651.526C3312.009,657.451 3315.909,662.101 3320.859,665.476C3325.809,668.851 3332.184,670.538 3339.984,670.538Z" style="fill:white;fill-rule:nonzero;"/>
            <path d="M3418.284,527.213L3441.009,527.213C3447.309,555.413 3453.534,580.988 3459.684,603.938C3465.834,626.888 3472.434,647.288 3479.484,665.138C3486.534,647.288 3493.134,626.888 3499.284,603.938C3505.434,580.988 3511.659,555.413 3517.959,527.213L3540.684,527.213C3533.034,561.413 3525.197,591.788 3517.172,618.338C3509.147,644.888 3500.484,667.763 3491.184,686.963L3467.784,686.963C3458.634,667.763 3450.009,644.888 3441.909,618.338C3433.809,591.788 3425.934,561.413 3418.284,527.213Z" style="fill:white;fill-rule:nonzero;"/>
            <path d="M3569.484,686.963L3569.484,527.213L3670.059,527.213L3670.059,547.013L3591.759,547.013L3591.759,593.813L3664.659,593.813L3664.659,613.613L3591.759,613.613L3591.759,667.163L3671.859,667.163L3671.859,686.963L3569.484,686.963Z" style="fill:white;fill-rule:nonzero;"/>
            <path d="M3703.359,686.963L3703.359,527.213L3760.284,527.213C3778.584,527.213 3791.972,531.413 3800.447,539.813C3808.922,548.213 3813.159,560.063 3813.159,575.363C3813.159,587.663 3810.122,597.863 3804.047,605.963C3797.972,614.063 3788.784,619.388 3776.484,621.938L3819.234,684.713L3819.234,686.963L3795.159,686.963L3753.084,623.513L3725.409,623.513L3725.409,686.963L3703.359,686.963ZM3725.409,603.713L3760.284,603.713C3770.934,603.713 3778.809,601.051 3783.909,595.726C3789.009,590.401 3791.559,583.613 3791.559,575.363C3791.559,556.463 3781.134,547.013 3760.284,547.013L3725.409,547.013L3725.409,603.713Z" style="fill:white;fill-rule:nonzero;"/>
            <path d="M3840.834,527.213L3868.059,527.213L3933.084,648.713L3933.084,527.213L3955.134,527.213L3955.134,686.963L3928.809,686.963L3862.884,565.013L3862.884,686.963L3840.834,686.963L3840.834,527.213Z" style="fill:white;fill-rule:nonzero;"/>
            <path d="M3975.159,527.213L4000.134,527.213C4007.034,539.513 4013.597,552.188 4019.822,565.238C4026.047,578.288 4031.934,591.713 4037.484,605.513C4043.034,591.713 4048.922,578.288 4055.147,565.238C4061.372,552.188 4067.934,539.513 4074.834,527.213L4099.809,527.213L4099.809,686.963L4077.759,686.963L4077.759,563.438C4072.209,573.788 4066.847,584.401 4061.672,595.276C4056.497,606.151 4051.509,617.213 4046.709,628.463L4028.259,628.463C4023.459,617.213 4018.472,606.151 4013.297,595.276C4008.122,584.401 4002.759,573.788 3997.209,563.438L3997.209,686.963L3975.159,686.963L3975.159,527.213Z" style="fill:white;fill-rule:nonzero;"/>
            <path d="M4127.484,686.963L4127.484,527.213L4228.059,527.213L4228.059,547.013L4149.759,547.013L4149.759,593.813L4222.659,593.813L4222.659,613.613L4149.759,613.613L4149.759,667.163L4229.859,667.163L4229.859,686.963L4127.484,686.963Z" style="fill:white;fill-rule:nonzero;"/>
            <path d="M4259.334,527.213L4286.559,527.213L4351.584,648.713L4351.584,527.213L4373.634,527.213L4373.634,686.963L4347.309,686.963L4281.384,565.013L4281.384,686.963L4259.334,686.963L4259.334,527.213Z" style="fill:white;fill-rule:nonzero;"/>
            <path d="M4444.959,686.963L4444.959,547.013L4397.484,547.013L4397.484,527.213L4514.484,527.213L4514.484,547.013L4467.009,547.013L4467.009,686.963L4444.959,686.963Z" style="fill:white;fill-rule:nonzero;"/>
        </g>
    </g>
</svg>
