<?xml version="1.0" encoding="UTF-8" standalone="no"?>
<!DOCTYPE svg PUBLIC "-//W3C//DTD SVG 1.1//EN" "http://www.w3.org/Graphics/SVG/1.1/DTD/svg11.dtd">
<svg width="100%" height="100%" viewBox="0 0 1318 331" version="1.1" xmlns="http://www.w3.org/2000/svg" xmlns:xlink="http://www.w3.org/1999/xlink" xml:space="preserve" xmlns:serif="http://www.serif.com/" style="fill-rule:evenodd;clip-rule:evenodd;stroke-linejoin:round;stroke-miterlimit:2;">
    <g id="text34">
        <g transform="matrix(1,0,0,1,331.289818,189.785808)">
            <path d="M13.05,-122.265L13.05,-132.303L20.076,-139.53L30.717,-139.53L37.743,-132.303L37.743,-122.265L30.717,-115.037L20.076,-115.037L13.05,-122.265ZM16.061,-99.98L34.732,-99.98L34.732,0L16.061,0L16.061,-99.98Z" style="fill:white;fill-rule:nonzero;"/>
            <path d="M64.846,-99.98L82.714,-99.98L82.714,-80.305L102.389,-99.98L133.708,-99.98L153.383,-80.305L153.383,0L134.712,0L134.712,-74.684L125.678,-83.718L106.605,-83.718L83.517,-60.63L83.517,0L64.846,0L64.846,-99.98Z" style="fill:white;fill-rule:nonzero;"/>
            <path d="M187.513,-19.072L187.513,-83.919L169.444,-83.919L169.444,-99.98L187.914,-99.98L187.914,-132.504L206.184,-132.504L206.184,-99.98L237.302,-99.98L237.302,-83.718L206.184,-83.718L206.184,-25.095L215.218,-16.262L237.302,-16.262L237.302,0L206.786,0L187.513,-19.072Z" style="fill:white;fill-rule:nonzero;"/>
            <path d="M253.363,-19.072L253.363,-80.707L272.636,-99.98L325.035,-99.98L344.309,-80.707L344.309,-44.168L272.034,-44.168L272.034,-24.895L280.867,-16.061L316.804,-16.061L325.638,-24.694L325.638,-31.52L344.108,-31.52L344.108,-19.072L325.236,0L272.435,0L253.363,-19.072ZM325.638,-58.824L325.638,-75.085L316.603,-83.919L281.068,-83.919L272.034,-75.085L272.034,-58.824L325.638,-58.824Z" style="fill:white;fill-rule:nonzero;"/>
            <path d="M369.404,-99.98L387.272,-99.98L387.272,-82.514L404.537,-99.98L431.239,-99.98L431.239,-83.718L408.753,-83.718L388.075,-62.839L388.075,0L369.404,0L369.404,-99.98Z" style="fill:white;fill-rule:nonzero;"/>
            <rect x="444.289" y="-59.426" width="62.638" height="16.463" style="fill:white;fill-rule:nonzero;"/>
            <path d="M528.007,-17.065L528.007,-41.759L545.072,-58.824L597.671,-58.824L597.671,-75.688L588.838,-84.32L556.114,-84.32L547.481,-75.688L547.481,-68.259L528.81,-68.259L528.81,-80.506L548.284,-99.98L596.668,-99.98L616.142,-80.506L616.142,0L598.675,0L598.675,-16.463L581.41,0L545.072,0L528.007,-17.065ZM578.8,-15.459L597.671,-33.527L597.671,-43.967L553.704,-43.967L546.678,-36.94L546.678,-22.285L553.704,-15.459L578.8,-15.459Z" style="fill:white;fill-rule:nonzero;"/>
            <path d="M638.226,-17.466L638.226,-29.914L656.897,-29.914L656.897,-22.485L663.722,-15.86L699.057,-15.86L705.883,-22.485L705.883,-35.736L699.057,-42.763L655.893,-42.763L639.029,-59.627L639.029,-82.514L656.294,-99.98L705.08,-99.98L722.546,-82.514L722.546,-70.066L703.875,-70.066L703.875,-77.495L697.049,-84.12L664.526,-84.12L657.7,-77.495L657.7,-65.047L664.526,-58.021L707.288,-58.021L724.554,-40.755L724.554,-17.466L707.288,0L655.692,0L638.226,-17.466Z" style="fill:white;fill-rule:nonzero;"/>
            <path d="M756.676,-19.072L756.676,-83.919L738.607,-83.919L738.607,-99.98L757.077,-99.98L757.077,-132.504L775.347,-132.504L775.347,-99.98L806.465,-99.98L806.465,-83.718L775.347,-83.718L775.347,-25.095L784.381,-16.262L806.465,-16.262L806.465,0L775.949,0L756.676,-19.072Z" style="fill:white;fill-rule:nonzero;"/>
            <path d="M827.545,-99.98L845.413,-99.98L845.413,-82.514L862.679,-99.98L889.38,-99.98L889.38,-83.718L866.895,-83.718L846.216,-62.839L846.216,0L827.545,0L827.545,-99.98Z" style="fill:white;fill-rule:nonzero;"/>
            <path d="M898.414,-17.065L898.414,-41.759L915.479,-58.824L968.079,-58.824L968.079,-75.688L959.246,-84.32L926.521,-84.32L917.888,-75.688L917.888,-68.259L899.217,-68.259L899.217,-80.506L918.691,-99.98L967.075,-99.98L986.549,-80.506L986.549,0L969.083,0L969.083,-16.463L951.817,0L915.479,0L898.414,-17.065ZM949.207,-15.459L968.079,-33.527L968.079,-43.967L924.112,-43.967L917.085,-36.94L917.085,-22.285L924.112,-15.459L949.207,-15.459Z" style="fill:white;fill-rule:nonzero;"/>
        </g>
        <g transform="matrix(1,0,0,1,-45.677689,15.252722)">
            <path d="M390.017,230.494C396.677,228.767 402.696,226.769 408.073,224.5C413.45,222.231 418.211,219.838 422.355,217.322C424.871,215.743 427.436,213.918 430.051,211.846C432.666,209.774 435.145,207.628 437.488,205.408C439.831,203.188 441.768,201.141 443.297,199.266L452.177,207.628C449.908,209.897 447.392,212.191 444.629,214.51C441.866,216.829 438.993,219.024 436.008,221.096C433.023,223.168 430.076,225.092 427.165,226.868C424.353,228.496 421.208,230.173 417.73,231.9C414.252,233.627 410.577,235.255 406.704,236.784C402.831,238.313 398.946,239.645 395.049,240.78L390.017,230.494ZM420.653,222.576L432.345,219.912L432.345,253.138C432.345,254.273 432.37,255.506 432.419,256.838C432.468,258.17 432.542,259.428 432.641,260.612C432.74,261.796 432.888,262.709 433.085,263.35L420.061,263.35C420.16,262.709 420.258,261.796 420.357,260.612C420.456,259.428 420.53,258.17 420.579,256.838C420.628,255.506 420.653,254.273 420.653,253.138L420.653,222.576Z" style="fill:white;fill-rule:nonzero;"/>
            <path d="M478.003,202.966C479.286,203.854 480.79,204.952 482.517,206.259C484.244,207.566 486.032,208.96 487.882,210.44C489.732,211.92 491.471,213.388 493.099,214.843C494.727,216.298 496.084,217.593 497.169,218.728L488.807,227.312C487.82,226.227 486.575,224.969 485.07,223.538C483.565,222.107 481.925,220.615 480.149,219.061C478.373,217.507 476.622,216.039 474.895,214.658C473.168,213.277 471.614,212.142 470.233,211.254L478.003,202.966ZM467.865,252.176C471.664,251.633 475.228,250.893 478.558,249.956C481.888,249.019 485.008,247.946 487.919,246.737C490.83,245.528 493.494,244.233 495.911,242.852C500.252,240.287 504.199,237.388 507.751,234.157C511.303,230.926 514.423,227.546 517.112,224.019C519.801,220.492 521.934,217.026 523.513,213.622L529.877,225.166C527.953,228.57 525.573,231.949 522.736,235.304C519.899,238.659 516.717,241.828 513.19,244.813C509.663,247.798 505.876,250.499 501.831,252.916C499.315,254.396 496.602,255.802 493.691,257.134C490.78,258.466 487.734,259.638 484.552,260.649C481.37,261.66 478.126,262.437 474.821,262.98L467.865,252.176Z" style="fill:white;fill-rule:nonzero;"/>
            <path d="M565.841,224.944C568.11,226.227 570.614,227.756 573.352,229.532C576.09,231.308 578.853,233.146 581.64,235.045C584.427,236.944 587.054,238.77 589.521,240.521C591.988,242.272 594.06,243.839 595.737,245.22L587.893,254.544C586.314,253.015 584.304,251.263 581.862,249.29C579.42,247.317 576.805,245.294 574.018,243.222C571.231,241.15 568.493,239.164 565.804,237.265C563.115,235.366 560.71,233.75 558.589,232.418L565.841,224.944ZM600.991,212.586C600.498,213.326 600.017,214.202 599.548,215.213C599.079,216.224 598.648,217.248 598.253,218.284C597.513,220.504 596.514,222.971 595.256,225.684C593.998,228.397 592.506,231.197 590.779,234.083C589.052,236.969 587.079,239.793 584.859,242.556C581.356,246.947 577.151,251.128 572.242,255.099C567.333,259.07 561.327,262.413 554.223,265.126L544.751,256.912C550.03,255.235 554.568,253.298 558.367,251.103C562.166,248.908 565.446,246.601 568.209,244.184C570.972,241.767 573.364,239.349 575.387,236.932C577.015,235.057 578.557,232.961 580.012,230.642C581.467,228.323 582.738,226.029 583.823,223.76C584.908,221.491 585.648,219.443 586.043,217.618L561.697,217.618L565.397,208.368L585.821,208.368C587.005,208.368 588.226,208.294 589.484,208.146C590.742,207.998 591.815,207.776 592.703,207.48L600.991,212.586ZM576.645,201.042C575.658,202.423 574.709,203.903 573.796,205.482C572.883,207.061 572.18,208.245 571.687,209.034C570.01,212.093 567.839,215.312 565.175,218.691C562.511,222.07 559.588,225.314 556.406,228.422C553.224,231.53 549.906,234.293 546.453,236.71L537.647,229.902C541.988,227.189 545.664,224.364 548.673,221.429C551.682,218.494 554.198,215.657 556.221,212.919C558.244,210.181 559.896,207.751 561.179,205.63C561.82,204.693 562.499,203.422 563.214,201.819C563.929,200.216 564.46,198.723 564.805,197.342L576.645,201.042Z" style="fill:white;fill-rule:nonzero;"/>
            <path d="M614.459,224.87C615.396,224.919 616.605,224.993 618.085,225.092C619.565,225.191 621.082,225.265 622.636,225.314C624.19,225.363 625.584,225.388 626.817,225.388L666.333,225.388C668.06,225.388 669.712,225.314 671.291,225.166C672.87,225.018 674.177,224.919 675.213,224.87L675.213,237.82C674.325,237.771 673.005,237.684 671.254,237.561C669.503,237.438 667.862,237.376 666.333,237.376L626.817,237.376C624.696,237.376 622.476,237.425 620.157,237.524C617.838,237.623 615.939,237.721 614.459,237.82L614.459,224.87Z" style="fill:white;fill-rule:nonzero;"/>
            <path d="M750.027,209.7C749.632,210.193 749.114,210.859 748.473,211.698C747.832,212.537 747.338,213.252 746.993,213.844C745.809,215.817 744.267,218.074 742.368,220.615C740.469,223.156 738.397,225.622 736.152,228.015C733.907,230.408 731.626,232.443 729.307,234.12L720.871,227.386C722.302,226.449 723.695,225.425 725.052,224.315C726.409,223.205 727.667,222.046 728.826,220.837C729.985,219.628 730.997,218.457 731.86,217.322C732.723,216.187 733.377,215.201 733.821,214.362L696.229,214.362C694.65,214.362 693.183,214.411 691.826,214.51C690.469,214.609 688.854,214.757 686.979,214.954L686.979,203.558C688.459,203.755 689.976,203.94 691.53,204.113C693.084,204.286 694.65,204.372 696.229,204.372L735.375,204.372C736.164,204.372 737.102,204.347 738.187,204.298C739.272,204.249 740.321,204.162 741.332,204.039C742.343,203.916 743.096,203.805 743.589,203.706L750.027,209.7ZM719.761,219.69C719.761,223.242 719.699,226.72 719.576,230.124C719.453,233.528 719.07,236.796 718.429,239.929C717.788,243.062 716.739,246.059 715.284,248.92C713.829,251.781 711.818,254.507 709.253,257.097C706.688,259.687 703.333,262.117 699.189,264.386L689.643,256.616C690.876,256.172 692.184,255.617 693.565,254.951C694.946,254.285 696.352,253.385 697.783,252.25C700.003,250.671 701.804,249.019 703.185,247.292C704.566,245.565 705.627,243.691 706.367,241.668C707.107,239.645 707.625,237.413 707.921,234.971C708.217,232.529 708.365,229.803 708.365,226.794C708.365,225.561 708.34,224.389 708.291,223.279C708.242,222.169 708.094,220.973 707.847,219.69L719.761,219.69Z" style="fill:white;fill-rule:nonzero;"/>
            <path d="M815.295,209.478C814.999,209.922 814.555,210.65 813.963,211.661C813.371,212.672 812.878,213.597 812.483,214.436C811.496,216.755 810.251,219.345 808.746,222.206C807.241,225.067 805.539,227.941 803.64,230.827C801.741,233.713 799.706,236.414 797.535,238.93C794.772,242.137 791.714,245.257 788.359,248.291C785.004,251.325 781.477,254.137 777.777,256.727C774.077,259.317 770.328,261.5 766.529,263.276L758.019,254.47C762.015,252.99 765.9,251.078 769.674,248.735C773.448,246.392 776.938,243.888 780.145,241.224C783.352,238.56 786.065,235.97 788.285,233.454C789.962,231.629 791.504,229.692 792.91,227.645C794.316,225.598 795.562,223.563 796.647,221.54C797.732,219.517 798.522,217.692 799.015,216.064L774.965,216.064C773.929,216.064 772.819,216.101 771.635,216.175C770.451,216.249 769.341,216.323 768.305,216.397C767.269,216.471 766.455,216.533 765.863,216.582L765.863,204.964C766.652,205.063 767.627,205.149 768.786,205.223C769.945,205.297 771.092,205.359 772.227,205.408C773.362,205.457 774.274,205.482 774.965,205.482L800.347,205.482C802.123,205.482 803.751,205.383 805.231,205.186C806.711,204.989 807.846,204.767 808.635,204.52L815.295,209.478ZM798.497,232.196C800.421,233.676 802.456,235.427 804.602,237.45C806.748,239.473 808.894,241.582 811.04,243.777C813.186,245.972 815.172,248.081 816.997,250.104C818.822,252.127 820.327,253.853 821.511,255.284L812.113,263.424C810.337,260.809 808.29,258.158 805.971,255.469C803.652,252.78 801.21,250.092 798.645,247.403C796.08,244.714 793.465,242.186 790.801,239.818L798.497,232.196Z" style="fill:white;fill-rule:nonzero;"/>
            <path d="M849.631,252.546L849.631,210.144C849.631,208.763 849.569,207.209 849.446,205.482C849.323,203.755 849.113,202.226 848.817,200.894L861.619,200.894C861.471,202.226 861.311,203.694 861.138,205.297C860.965,206.9 860.879,208.516 860.879,210.144L860.879,223.02C860.879,225.881 860.891,228.817 860.916,231.826C860.941,234.835 860.953,237.734 860.953,240.521L860.953,252.546C860.953,253.237 860.978,254.223 861.027,255.506C861.076,256.789 861.175,258.133 861.323,259.539C861.471,260.945 861.594,262.191 861.693,263.276L848.817,263.276C849.064,261.796 849.261,260.02 849.409,257.948C849.557,255.876 849.631,254.075 849.631,252.546ZM858.511,219.986C860.978,220.627 863.74,221.454 866.799,222.465C869.858,223.476 872.966,224.549 876.123,225.684C879.28,226.819 882.228,227.941 884.966,229.051C887.704,230.161 889.936,231.135 891.663,231.974L887.001,243.37C884.929,242.285 882.647,241.199 880.156,240.114C877.665,239.029 875.149,237.968 872.608,236.932C870.067,235.896 867.588,234.946 865.171,234.083C862.754,233.22 860.534,232.443 858.511,231.752L858.511,219.986Z" style="fill:white;fill-rule:nonzero;"/>
            <path d="M917.267,202.522C918.303,202.67 919.586,202.781 921.115,202.855C922.644,202.929 924.026,202.966 925.259,202.966L953.527,202.966C954.711,202.966 956.129,202.929 957.782,202.855C959.435,202.781 960.804,202.67 961.889,202.522L961.889,213.104C960.853,213.005 959.521,212.931 957.893,212.882C956.265,212.833 954.76,212.808 953.379,212.808L925.259,212.808C924.075,212.808 922.731,212.833 921.226,212.882C919.721,212.931 918.402,213.005 917.267,213.104L917.267,202.522ZM968.401,224.648C968.105,225.141 967.809,225.709 967.513,226.35C967.217,226.991 966.995,227.509 966.847,227.904C965.663,231.505 964.232,235.033 962.555,238.486C960.878,241.939 958.658,245.195 955.895,248.254C952.195,252.398 948.051,255.79 943.463,258.429C938.875,261.068 934.213,263.079 929.477,264.46L921.263,255.21C926.936,254.026 931.931,252.287 936.248,249.993C940.565,247.699 944.104,245.171 946.867,242.408C948.742,240.484 950.246,238.511 951.381,236.488C952.516,234.465 953.404,232.517 954.045,230.642L919.413,230.642C918.476,230.642 917.144,230.667 915.417,230.716C913.69,230.765 912.013,230.864 910.385,231.012L910.385,220.43C912.062,220.578 913.69,220.701 915.269,220.8C916.848,220.899 918.229,220.948 919.413,220.948L955.303,220.948C956.635,220.948 957.794,220.862 958.781,220.689C959.768,220.516 960.557,220.307 961.149,220.06L968.401,224.648Z" style="fill:white;fill-rule:nonzero;"/>
        </g>
    </g>
    <g id="text38">
    </g>
    <g id="text39">
    </g>
    <g transform="matrix(0.322885,0,0,0.322885,0.02335,-0.000315)">
        <path d="M762.612,157.68C692.034,107.856 605.938,78.576 513.056,78.576C273.843,78.576 79.633,272.787 79.633,512C79.633,572.379 92.006,629.892 114.353,682.137L53.825,740.619C19.384,671.791 -0.001,594.141 -0.001,512C-0.001,229.419 229.419,-0 512,-0C626.63,-0 732.513,37.752 817.881,101.491L762.612,157.68Z" style="fill:rgb(126,89,212);"/>
    </g>
    <g transform="matrix(0.322885,0,0,0.322885,0.02335,-0.000315)">
        <path d="M956.146,257.269C999.307,332.308 1024,419.293 1024,512C1024,794.581 794.58,1024 512,1024C427.796,1024 348.313,1003.63 278.214,967.552L338.869,908.947C392.187,932.401 451.113,945.424 513.056,945.424C752.269,945.424 946.48,751.213 946.48,512C946.48,441.135 929.436,374.22 899.228,315.133L956.146,257.269Z" style="fill:rgb(61,84,183);"/>
    </g>
    <g id="path1" transform="matrix(0.357582,0,0,0.357582,-17.741367,-17.765032)">
        <path d="M518.238,159.013C520.957,165.863 526.57,180.052 530.71,190.546C541.393,217.619 549.095,232.307 554.759,236.411C557.266,238.228 568.325,243.616 579.331,248.386C590.338,253.157 601.491,258.042 604.114,259.243C606.737,260.445 615.859,264.368 624.385,267.962C632.911,271.554 639.886,275.17 639.886,275.994C639.886,276.819 628.618,282.483 614.846,288.581C556.393,314.46 553.536,316.054 548.293,325.686C546.531,328.924 538.97,345.987 531.491,363.606C512.55,408.226 512.543,408.242 511.236,407.807C510.592,407.592 504.608,393.767 497.94,377.084C476.251,322.827 474.636,319.675 465.889,314.549C462.962,312.833 446.986,305.61 430.389,298.497C389.734,281.073 384.114,278.419 384.114,276.64C384.114,275.263 406.609,264.907 445.523,248.37C453.393,245.027 462.056,240.987 464.775,239.395C475.017,233.395 478.448,227.076 497.949,178.297C505.098,160.411 511.477,145.954 512.122,146.169C512.767,146.383 515.519,152.164 518.238,159.013Z" style="fill:white;"/>
    </g>
    <g id="path2" transform="matrix(0.357582,0,0,0.357582,-17.741367,-17.765032)">
        <path d="M316.058,360.505C328.964,392.403 331.474,397.876 334.801,401.35C337.86,404.545 349.66,410.466 379.704,423.879C390.296,428.608 399.092,433.213 399.25,434.113C399.442,435.197 394.519,437.889 384.661,442.089C360.697,452.301 342.059,461.396 337.914,464.901C334.28,467.973 327.615,479.603 324.211,488.809C318.711,503.69 306.17,531.507 304.847,531.762C303.783,531.968 300.965,526.168 296.339,514.255C284.106,482.752 277.496,468.809 272.858,464.729C270.544,462.694 261.207,457.785 252.106,453.823C243.007,449.859 231.886,445.011 227.392,443.049C222.899,441.087 217.266,438.643 214.876,437.616C209.703,435.395 209.273,433.224 213.678,431.565C217.575,430.097 244.449,418.065 258.926,411.306C264.714,408.604 271.333,404.74 273.633,402.719C278.158,398.746 278.631,397.77 293.936,360.723C299.58,347.061 304.691,336.047 305.294,336.249C305.898,336.45 310.741,347.365 316.058,360.505Z" style="fill:white;"/>
    </g>
    <g id="path3" transform="matrix(0.357582,0,0,0.357582,-17.741367,-17.765032)">
        <path d="M525.404,682.265C538.544,714.1 541.051,718.988 546.304,722.994C549.756,725.627 564.57,732.651 595.035,746.098C602.721,749.491 608.875,752.665 608.712,753.152C608.55,753.639 601.315,757.274 592.635,761.231C557.432,777.275 546.127,783.179 543.16,787.069C541.598,789.118 534.45,804.869 527.277,822.072C515.097,851.281 512.803,856.136 511.731,854.975C511.499,854.724 507.517,845.282 502.882,833.993C489.533,801.477 484.589,790.726 481.221,786.891C477.833,783.031 467.927,777.694 450.165,770.156C427.797,760.663 415.275,754.711 415.284,753.575C415.289,752.936 419.197,750.773 423.968,748.768C446.208,739.422 475.658,725.446 479.464,722.431C482.31,720.177 484.834,716.645 487.242,711.544C490.143,705.399 507.836,661.942 510.386,654.695C510.76,653.634 511.63,652.953 512.319,653.184C513.008,653.413 518.897,666.501 525.404,682.265Z" style="fill:white;"/>
    </g>
    <g id="path4" transform="matrix(0.357582,0,0,0.357582,-17.741367,-17.765032)">
        <path d="M740.036,522.825C753.65,556.092 755.728,560.41 760.168,564.623C763.261,567.559 797.034,584.08 820.889,594.328C826.332,596.666 830.614,599.099 830.402,599.732C830.192,600.365 818.198,606.253 803.75,612.815C763.53,631.08 761.561,632.271 756.74,641.241C754.071,646.206 746.492,663.726 732.943,696.252C730.056,703.179 727.848,706.988 726.838,706.779C725.968,706.599 724.263,704.083 723.05,701.188C721.835,698.294 716.304,684.897 710.758,671.419C698.172,640.843 695.997,636.552 691.229,632.915C687.572,630.124 672.298,622.646 661.106,618.164C658.211,617.004 650.58,613.575 644.147,610.543C637.713,607.509 630.171,604.033 627.383,602.814C624.595,601.598 622.502,600.038 622.733,599.348C622.963,598.658 634.98,592.965 649.438,586.695C688.263,569.86 691.125,568.374 694.992,563.035C698.336,558.418 707.773,537.062 719.63,507.272C724.48,495.086 726.116,492.046 727.185,493.237C727.935,494.072 733.718,507.387 740.036,522.825Z" style="fill:white;"/>
    </g>
    <g id="path6" transform="matrix(0.357582,0,0,0.357582,-17.741367,-17.765032)">
        <path d="M865.879,75.654C877.577,93.295 883.383,108.914 885.896,129.5C889.589,159.753 882.986,196.573 867.825,230.279C851.366,266.869 820.817,310.119 782.106,351.633C741.623,395.048 705.178,428.803 658.5,466.113C610.836,504.212 569.259,533.081 482.5,588.316C458.352,603.69 446.921,610.698 423.368,624.566C371.091,655.348 333.482,683.394 301.489,715.455C258.893,758.141 234.122,800.387 225.529,845C222.919,858.551 222.432,879.503 224.425,892.5C226.398,905.373 229.246,916.537 232.024,922.285C233.887,926.141 234.542,929 233.563,929C233.323,929 227.81,926.619 221.313,923.708C169.675,900.575 139.046,859.163 139.008,812.426C138.981,780.912 154.392,744.063 181.844,710C216.287,667.261 267.181,628.518 346,585.034C388.041,561.84 395.985,557.407 416.255,545.823C505.083,495.061 585.525,439.739 656.5,380.599C725.787,322.867 782.565,257.544 818.851,193.817C835.846,163.97 845.943,138.7 852.381,109.897C854.966,98.332 858,76.673 858,69.78C858,67.701 858.337,66.008 858.75,66.017C859.163,66.026 862.371,70.363 865.879,75.654Z" style="fill:rgb(88,170,254);"/>
    </g>
</svg>
