<?xml version="1.0" encoding="UTF-8" standalone="no"?><!DOCTYPE svg PUBLIC "-//W3C//DTD SVG 1.1//EN" "http://www.w3.org/Graphics/SVG/1.1/DTD/svg11.dtd"><svg width="100%" height="100%" viewBox="0 0 640 608" version="1.1" xmlns="http://www.w3.org/2000/svg" xmlns:xlink="http://www.w3.org/1999/xlink" xml:space="preserve" xmlns:serif="http://www.serif.com/" style="fill-rule:evenodd;clip-rule:evenodd;stroke-linecap:round;stroke-linejoin:round;stroke-miterlimit:1.5;"><circle cx="546.266" cy="521.701" r="12.5" style="fill:#fff;stroke:#fff;stroke-width:3.24px;"/><path d="M257.315,550.379c10.148,3.585 19.771,6.086 29.542,8.06c2.541,0.513 5.195,0.738 5.998,4.208c1.151,4.975 0.503,6.013 -4.612,5.093c-26.428,-4.751 -51.203,-13.924 -74.114,-27.999c-1.393,-0.856 -2.946,-1.602 -3.809,-3.571c0.585,-3.554 3.155,-4.826 4.901,-4.304c1.819,0.543 3.856,0.86 6.292,2.248c11.42,6.503 23.345,11.994 35.802,16.265Z" style="fill:#fff;stroke:#fff;stroke-width:4.7px;stroke-linecap:butt;stroke-miterlimit:2;"/><path d="M531.874,448.265c17.052,-29.692 26.739,-60.868 28.393,-94.389c0.226,-4.584 2.626,-5.969 6.282,-5.824c4.148,0.165 3.16,3.771 3,6.156c-1.776,26.429 -7.414,51.921 -18.477,76.129c-30.082,65.826 -79.724,109.649 -148.411,132.001c-7.256,2.362 -14.807,3.817 -22.228,5.664c-2.778,0.691 -5.799,1.752 -6.771,-2.438c-0.99,-4.27 1.721,-5.457 5.19,-6.196c16.984,-3.617 33.455,-8.859 49.185,-16.244c44.427,-20.856 79.095,-52.435 103.837,-94.859Z" style="fill:#fff;stroke:#fff;stroke-width:4.11px;stroke-linecap:butt;stroke-miterlimit:2;"/><path d="M496.305,465.266c-2.14,3.117 -4.263,1.831 -6.138,0.961c-21.566,-10.007 -43.119,-20.042 -64.63,-30.165c-4.67,-2.197 -4.911,-4.148 -0.721,-6.991c18.869,-12.807 36.983,-26.604 54.543,-41.138c2.562,-2.12 4.779,-1.823 6.989,0.458c2.776,2.866 5.593,5.693 8.383,8.547c1.213,1.24 1.873,2.718 1.865,4.481c-0.1,21.282 -0.195,42.565 -0.291,63.847Z" style="fill:#fff;"/><path d="M353.632,543.353c-1.675,10.448 -4.313,20.071 -5.95,29.636c-0,-0 -1.172,-4.865 -1.243,-7.262c-0.801,-26.963 -1.405,-53.932 -2.337,-80.889c-0.168,-4.873 1.351,-9.883 5.795,-11.74c2.288,-0.955 4.334,-1.477 6.545,-1.636c0.138,-0.01 0.273,-0.021 0.405,-0.032c3.862,-0.315 5.003,-0.91 4.756,3.167c-0.502,8.286 -1.196,16.572 -2.194,24.812c-1.775,14.666 -3.836,29.298 -5.777,43.944Z" style="fill:#fff;stroke:#fff;stroke-width:3.24px;stroke-linecap:butt;stroke-miterlimit:2;"/><path d="M311.148,529.67c-1.663,-9.845 -3.141,-18.841 -4.566,-27.846c-0.404,-2.552 -0.809,-5.881 0.797,-7.877c2.985,-3.709 6.816,-5.328 11.208,-2.894c4.126,2.285 4.492,8.33 4.361,12.134c-0.681,19.768 -1.51,39.531 -2.356,59.293c-0.135,3.143 -0.616,6.272 -1.049,10.509c-3.649,-15 -6.151,-29.133 -8.395,-43.319Z" style="fill:#fff;stroke:#fff;stroke-width:3.82px;stroke-linecap:butt;stroke-miterlimit:2;"/><path d="M114.541,282.247c-7.62,27.233 -9.031,54.115 -6.075,81.321c5.291,48.697 25.192,90.602 58.609,126.238c0.682,0.728 1.375,1.46 1.955,2.269c1.64,2.289 1.244,4.311 -0.832,6.159c-2.056,1.829 -3.81,1.438 -5.65,-0.376c-7.015,-6.913 -13.402,-14.39 -19.31,-22.239c-22.335,-29.675 -37.127,-62.853 -42.509,-99.542c-9.605,-65.477 4.543,-125.003 47.72,-176.368c28.95,-34.439 65.19,-57.446 108.941,-68.369c2.525,-0.63 5.905,-2.667 7.08,1.569c1.076,3.879 -0.922,5.987 -4.971,7.012c-27.999,7.091 -53.395,19.546 -75.807,37.819c-33.891,27.633 -57.215,62.317 -69.151,104.507Z" style="fill:#fff;stroke:#fff;stroke-width:3.82px;stroke-linecap:butt;stroke-miterlimit:2;"/><path d="M538.375,143.326c14.885,2.833 28.387,7.024 39.594,16.334c14.325,11.902 19.836,27.629 18.077,45.824c-3.312,34.256 -20.949,61.984 -41.189,88.401c-33.193,43.325 -74.797,77.575 -118.501,109.544c-47.922,35.055 -99.092,64.523 -153.299,88.686c-34.295,15.287 -69.572,27.794 -106.56,34.825c-27.143,5.159 -54.498,7.597 -81.671,0.587c-21.709,-5.601 -38.559,-17.399 -44.867,-40.329c-3.314,-12.044 -1.854,-24.108 1.371,-35.963c6.485,-23.834 18.929,-44.648 33.093,-64.561c0.354,-0.499 1.996,-0.793 2.747,-0.369c2.5,2.313 0.67,5.315 -1.171,8.238c-5.244,8.328 -9.991,16.926 -14.192,25.825c-6.222,13.179 -11.171,26.819 -11.889,41.475c-1.023,20.88 8.07,39.02 31.456,49.031c17.396,7.447 35.808,8.348 54.445,6.998c64.189,-4.65 122.009,-28.792 178.039,-58.286c52.347,-27.555 101.825,-59.495 146.901,-97.939c26.406,-22.52 51.632,-46.333 72.596,-74.148c14.69,-19.49 27.48,-40.18 33.477,-64.271c2.472,-9.927 3.584,-19.952 1.083,-30.105c-4.95,-20.096 -19.598,-30.256 -37.825,-36.28c-21.402,-7.073 -43.56,-6.88 -65.757,-5.724c-11.634,0.606 -23.144,2.252 -34.664,3.827c-2.575,0.352 -4.576,0.544 -5.184,-1.732c-0.779,-2.915 2.143,-4.113 3.851,-4.45c26.317,-5.196 52.685,-9.793 79.732,-7.661c6.802,0.537 13.614,0.768 20.307,2.223Z" style="fill:#fff;stroke:#fff;stroke-width:3.53px;stroke-linecap:butt;stroke-miterlimit:2;"/><path d="M216.138,448.505c-13.428,6.089 -26.151,11.909 -38.888,17.701c-4.447,2.022 -5.789,1.295 -5.811,-3.624c-0.09,-19.999 -0.021,-39.999 -0.06,-59.998c-0.009,-4.447 2.649,-7.389 5.439,-10.297c23.074,-24.052 84.128,-87.877 91.692,-95.629c3.281,-3.362 4.112,-7.64 4.605,-11.878c2.551,-21.945 4.808,-43.925 7.292,-65.878c2.148,-18.977 13.067,-119.904 15.075,-123.994c11.67,-23.771 23.373,-47.524 35.094,-71.269c0.717,-1.452 1.224,-3.404 3.144,-3.582c2.323,-0.215 2.918,1.989 3.68,3.543c11.805,24.073 23.532,48.183 35.315,72.266c4.044,8.264 13.102,113.005 14.945,129.507c1.751,15.674 10.679,70.9 15.956,76.539c15.484,16.547 30.769,33.281 46.122,49.95c4.585,4.978 4.622,5.384 -0.643,9.761c-26.068,21.67 -94.121,64.903 -99.741,68.161c-4.068,2.358 -5.62,1.436 -5.934,-3.338c-0.099,-1.494 -2.254,-240.777 -3.243,-274.913c-0.443,-15.257 -4.839,-47.799 -6.643,-48.49c-2.28,3.91 -6.591,35.77 -6.767,47.406c-0.527,34.821 -2.498,227.437 -3.082,288.922c-0.03,3.209 -1.002,5.354 -3.875,6.849c-4.727,2.461 -9.264,5.296 -14.044,7.643c-4.273,2.099 -6.289,0.788 -6.339,-4.019c-0.112,-10.832 -0.05,-39.28 -0.05,-39.28l-83.239,37.941Z" style="fill:#fff;"/><circle cx="108.859" cy="138.295" r="19" style="fill:#fff;stroke:#fff;stroke-width:3.24px;"/></svg>