<?xml version="1.0" encoding="utf-8" ?>
<svg baseProfile="tiny" height="203" version="1.2" width="271" xmlns="http://www.w3.org/2000/svg" xmlns:ev="http://www.w3.org/2001/xml-events" xmlns:xlink="http://www.w3.org/1999/xlink"><defs /><polygon fill="white" points="133,41 132,42 125,42 124,43 120,43 119,44 116,44 115,45 113,45 112,46 111,46 110,47 108,47 107,48 106,48 105,49 104,49 102,51 101,51 100,52 99,52 97,54 96,54 92,58 91,58 83,66 83,67 80,70 80,71 78,73 78,74 76,76 76,77 75,78 75,79 74,80 74,81 73,82 73,83 72,84 72,86 71,87 71,89 70,90 70,92 69,93 69,96 68,97 68,102 67,103 67,119 68,120 68,125 69,126 69,129 70,130 70,132 71,133 71,135 72,136 72,138 73,139 73,140 74,141 74,142 75,143 75,144 76,145 77,145 77,144 76,143 76,142 75,141 75,140 74,139 74,137 73,136 73,133 72,132 72,129 71,128 71,103 72,102 72,98 73,97 73,95 74,94 74,92 75,91 75,89 76,88 76,87 77,86 77,85 78,84 78,83 79,82 79,81 80,80 80,79 83,76 83,75 87,71 87,70 88,69 89,69 89,68 91,66 92,66 96,62 97,62 100,59 101,59 102,58 103,58 104,57 105,57 106,56 107,56 108,55 109,55 110,54 111,54 112,53 114,53 115,52 117,52 118,51 122,51 123,50 131,50 132,49 138,49 139,50 146,50 147,51 150,51 151,52 152,52 152,50 151,49 151,48 150,47 150,46 149,45 149,44 147,42 141,42 140,41" /><polygon fill="white" points="126,10 126,12 140,26 140,27 144,31 144,32 148,36 148,37 150,39 150,40 152,42 152,43 153,44 153,45 154,46 154,47 155,48 155,49 156,50 156,51 157,52 157,54 158,55 158,57 159,58 159,60 158,61 156,61 155,62 153,62 152,63 150,63 149,64 145,64 144,65 137,65 136,66 135,66 135,67 142,67 143,68 147,68 148,69 151,69 152,70 154,70 155,71 157,71 159,73 159,75 158,76 158,78 157,79 157,80 156,81 156,83 155,84 155,85 154,86 154,87 153,88 153,89 151,91 151,92 149,94 149,95 146,98 146,99 142,103 142,104 136,110 136,111 125,122 127,122 139,110 140,110 145,105 146,105 149,102 150,102 153,99 154,99 156,97 157,97 158,96 159,96 161,94 162,94 163,93 164,93 165,92 167,92 168,91 170,91 171,90 174,90 175,89 176,90 176,91 177,92 177,94 178,95 178,97 179,98 179,101 180,102 180,107 181,108 181,113 182,113 182,109 183,108 183,102 184,101 184,99 185,98 186,99 186,102 187,103 187,106 188,107 188,114 189,115 189,121 188,122 188,129 187,130 187,133 186,134 186,136 185,137 185,139 184,140 184,141 183,142 183,144 182,145 182,146 180,148 180,149 179,150 179,151 175,155 175,156 167,164 166,164 163,167 162,167 161,168 160,168 158,170 157,170 156,171 155,171 154,172 152,172 151,173 150,173 149,174 147,174 146,175 143,175 142,176 136,176 135,177 124,177 123,176 117,176 116,175 113,175 112,174 110,174 109,173 108,173 107,172 105,172 104,171 103,171 103,172 104,173 105,173 106,174 108,174 109,175 110,175 111,176 113,176 114,177 116,177 117,178 119,178 120,179 124,179 125,180 133,180 134,181 140,181 141,180 148,180 149,179 153,179 154,178 157,178 158,177 160,177 161,176 162,176 163,175 165,175 166,174 167,174 168,173 169,173 170,172 171,172 173,170 174,170 176,168 177,168 179,166 180,166 191,155 191,154 194,151 194,150 196,148 196,147 197,146 197,145 199,143 199,142 200,141 200,139 201,138 201,137 202,136 202,134 203,133 203,131 204,130 204,127 205,126 205,122 206,121 206,101 205,100 205,97 206,96 208,98 209,98 212,101 213,101 215,103 216,103 222,109 223,109 236,122 238,122 234,118 234,117 233,117 232,116 232,115 224,107 224,106 219,101 219,100 216,97 216,96 214,94 214,93 213,92 213,91 211,89 211,88 210,87 210,86 209,85 209,84 208,83 208,81 207,80 207,78 206,77 206,74 205,73 207,71 208,71 209,70 212,70 213,69 215,69 216,68 221,68 222,67 228,67 228,66 227,65 219,65 218,64 215,64 214,63 211,63 210,62 208,62 207,61 206,61 205,60 205,59 206,58 206,55 207,54 207,52 208,51 208,50 209,49 209,47 210,46 210,45 212,43 212,42 213,41 213,40 215,38 215,37 218,34 218,33 221,30 221,29 227,23 227,22 238,11 238,10 237,10 229,18 228,18 220,26 219,26 215,30 214,30 212,32 211,32 209,34 208,34 206,36 205,36 204,37 203,37 202,38 201,38 200,39 199,39 198,40 197,40 196,41 194,41 193,42 191,42 190,43 188,43 187,42 187,41 186,40 186,38 185,37 185,35 184,34 184,31 183,30 183,24 182,23 182,20 181,20 181,25 180,26 180,31 179,32 179,35 178,36 178,38 177,39 177,41 175,43 174,43 173,42 170,42 169,41 168,41 167,40 165,40 164,39 163,39 162,38 161,38 160,37 159,37 158,36 157,36 155,34 154,34 152,32 151,32 148,29 147,29 143,25 142,25 132,15 131,15 127,11 127,10" /></svg>