<?xml version="1.0" encoding="UTF-8" standalone="no"?>
<svg
   id="Layer_1"
   viewBox="0 0 204.89999 179.22"
   version="1.1"
   sodipodi:docname="Reddit_Icon_2Color_FullBleed.svg"
   width="204.89999"
   height="179.22"
   inkscape:version="1.4 (86a8ad7, 2024-10-11)"
   xmlns:inkscape="http://www.inkscape.org/namespaces/inkscape"
   xmlns:sodipodi="http://sodipodi.sourceforge.net/DTD/sodipodi-0.dtd"
   xmlns="http://www.w3.org/2000/svg"
   xmlns:svg="http://www.w3.org/2000/svg">
  <sodipodi:namedview
     id="namedview1"
     pagecolor="#ffffff"
     bordercolor="#000000"
     borderopacity="0.25"
     inkscape:showpageshadow="2"
     inkscape:pageopacity="0.0"
     inkscape:pagecheckerboard="0"
     inkscape:deskcolor="#d1d1d1"
     inkscape:zoom="4.6445313"
     inkscape:cx="102.37847"
     inkscape:cy="105.17746"
     inkscape:window-width="2560"
     inkscape:window-height="1369"
     inkscape:window-x="-8"
     inkscape:window-y="68"
     inkscape:window-maximized="1"
     inkscape:current-layer="Layer_1" />
  <defs
     id="defs1">
    <style
       id="style1">.cls-1{fill:#fff;}.cls-1,.cls-2{stroke-width:0px;}.cls-2{fill:#ff4500;}</style>
  </defs>
  <path
     class="cls-1"
     d="m 128.5,26.24 c 2.22,9.41 10.67,16.42 20.76,16.42 11.78,0 21.33,-9.55 21.33,-21.33 C 170.59,9.55 161.04,0 149.26,0 c -10.3,0 -18.89,7.3 -20.89,17.01 -17.25,1.85 -30.72,16.48 -30.72,34.21 0,0.04 0,0.07 0,0.11 C 78.89,52.12 61.76,57.46 48.16,65.89 43.11,61.98 36.77,59.65 29.89,59.65 13.38,59.65 0,73.03 0,89.54 c 0,11.98 7.04,22.3 17.21,27.07 0.99,34.7 38.8,62.61 85.31,62.61 46.51,0 84.37,-27.94 85.31,-62.67 10.09,-4.8 17.07,-15.09 17.07,-27 0,-16.51 -13.38,-29.89 -29.89,-29.89 -6.85,0 -13.16,2.31 -18.2,6.19 -13.72,-8.49 -31.04,-13.83 -49.99,-14.54 0,-0.03 0,-0.05 0,-0.08 0,-12.7 9.44,-23.24 21.68,-24.97 z m -81.54,82.27 c 0.5,-10.84 7.7,-19.16 16.07,-19.16 8.37,0 14.77,8.79 14.27,19.63 -0.5,10.84 -6.75,14.78 -15.13,14.78 -8.38,0 -15.71,-4.41 -15.21,-15.25 z m 95.06,-19.16 c 8.38,0 15.58,8.32 16.07,19.16 0.5,10.84 -6.84,15.25 -15.21,15.25 -8.37,0 -14.63,-3.93 -15.13,-14.78 -0.5,-10.84 5.89,-19.63 14.27,-19.63 z m -9.96,44.24 c 1.57,0.16 2.57,1.79 1.96,3.25 -5.15,12.31 -17.31,20.96 -31.5,20.96 -14.19,0 -26.34,-8.65 -31.5,-20.96 -0.61,-1.46 0.39,-3.09 1.96,-3.25 9.2,-0.93 19.15,-1.44 29.54,-1.44 10.39,0 20.33,0.51 29.54,1.44 z"
     id="path1" />
</svg>
