<?xml version="1.0" encoding="UTF-8" standalone="no"?>
<svg
   fill="none"
   viewBox="0 0 21.959 22"
   id="Steam-Logo--Streamline-Logos"
   height="22"
   width="21.959"
   version="1.1"
   sodipodi:docname="Steam-Logo--Streamline-Logos.svg"
   inkscape:version="1.4 (86a8ad7, 2024-10-11)"
   xmlns:inkscape="http://www.inkscape.org/namespaces/inkscape"
   xmlns:sodipodi="http://sodipodi.sourceforge.net/DTD/sodipodi-0.dtd"
   xmlns="http://www.w3.org/2000/svg"
   xmlns:svg="http://www.w3.org/2000/svg">
  <defs
     id="defs1" />
  <sodipodi:namedview
     id="namedview1"
     pagecolor="#ffffff"
     bordercolor="#000000"
     borderopacity="0.25"
     inkscape:showpageshadow="2"
     inkscape:pageopacity="0.0"
     inkscape:pagecheckerboard="0"
     inkscape:deskcolor="#d1d1d1"
     inkscape:zoom="49.541667"
     inkscape:cx="10.950378"
     inkscape:cy="10.990749"
     inkscape:window-width="2560"
     inkscape:window-height="1369"
     inkscape:window-x="-8"
     inkscape:window-y="68"
     inkscape:window-maximized="1"
     inkscape:current-layer="Steam-Logo--Streamline-Logos" />
  <desc
     id="desc1">Steam Logo Streamline Icon: https://streamlinehq.com</desc>
  <path
     fill="#000000"
     fill-rule="evenodd"
     d="m 10.959,22 c 6.075,0 11,-4.925 11,-11 0,-6.075 -4.925,-11 -11,-11 C 5.207,0 0.486,4.415 0,10.042 l 5.92,2.494 a 3.235,3.235 0 0 1 1.892,-0.534 l 2.409,-3.433 a 4.25,4.25 0 1 1 4.127,3.93 l -3.406,2.414 a 3.25,3.25 0 0 1 -6.447,0.82 L 0.372,13.996 C 1.677,18.616 5.922,22 10.959,22 Z M 7.709,17.629 A 2.38,2.38 0 0 1 5.511,16.162 l 1.36,0.572 A 1.75,1.75 0 0 0 8.229,13.51 L 6.983,12.985 A 2.379,2.379 0 1 1 7.709,17.63 Z M 14.613,6.502 a 1.75,1.75 0 1 0 0,3.5 1.75,1.75 0 0 0 0,-3.5 z m -2.75,1.75 a 2.75,2.75 0 1 1 5.5,0 2.75,2.75 0 0 1 -5.5,0 z"
     clip-rule="evenodd"
     stroke-width="1"
     id="path1"
     style="fill:#ffffff" />
</svg>
